<svg xmlns="http://www.w3.org/2000/svg" viewBox="0 0 500 504" width="500" height="504">
  <!-- DigiWin Super D - Particle variant (D shape filled with dots, signature piece) -->
  <defs>
    <clipPath id="d-clip">
      <!-- Arc shape as clip -->
      <path d="M 0 504 C 0 453.8 40.7 413.3 90.7 413.3 L 247 413.3 C 336.1 413.3 408.5 341.1 408.5 252 C 408.5 162.9 336.1 90.7 247 90.7 L 90.7 90.7 C 40.7 90.7 0 50 0 0 L 247 0 C 386.2 0 499 112.8 499 252 C 499 391.2 386.2 504 247 504 Z"/>
      <!-- Circle/dot -->
      <path d="M 26.7 252 C 26.7 216.1 55.9 186.9 91.8 186.9 C 127.6 186.9 156.8 216.1 156.8 252 C 156.8 287.8 127.6 317 91.8 317 C 55.9 317 26.7 287.8 26.7 252"/>
    </clipPath>
  </defs>
  <!-- Particle dots clipped to D shape -->
  <g clip-path="url(#d-clip)">
    <!-- Row 1 (y~30) -->
    <circle cx="250" cy="20" r="2" fill="#00E6FF" opacity="0.3"/>
    <circle cx="270" cy="25" r="2.5" fill="#00AFF0" opacity="0.4"/>
    <circle cx="290" cy="18" r="1.5" fill="#00E6FF" opacity="0.25"/>
    <!-- Row 2 (y~60) -->
    <circle cx="180" cy="55" r="2" fill="#00AFF0" opacity="0.35"/>
    <circle cx="210" cy="62" r="3" fill="#00E6FF" opacity="0.45"/>
    <circle cx="240" cy="50" r="2" fill="#00AFF0" opacity="0.3"/>
    <circle cx="270" cy="58" r="2.5" fill="#00E6FF" opacity="0.4"/>
    <circle cx="300" cy="65" r="1.5" fill="#00AFF0" opacity="0.3"/>
    <circle cx="330" cy="52" r="2" fill="#00E6FF" opacity="0.35"/>
    <circle cx="360" cy="60" r="3" fill="#00AFF0" opacity="0.5"/>
    <!-- Row 3 (y~100) -->
    <circle cx="120" cy="95" r="2.5" fill="#00AFF0" opacity="0.4"/>
    <circle cx="150" cy="105" r="3" fill="#00E6FF" opacity="0.5"/>
    <circle cx="180" cy="92" r="2" fill="#00AFF0" opacity="0.35"/>
    <circle cx="210" cy="100" r="3.5" fill="#00E6FF" opacity="0.55"/>
    <circle cx="240" cy="108" r="2.5" fill="#00AFF0" opacity="0.4"/>
    <circle cx="270" cy="95" r="3" fill="#00E6FF" opacity="0.5"/>
    <circle cx="300" cy="102" r="2" fill="#00AFF0" opacity="0.35"/>
    <circle cx="340" cy="98" r="3" fill="#00E6FF" opacity="0.45"/>
    <circle cx="380" cy="105" r="2.5" fill="#00AFF0" opacity="0.4"/>
    <circle cx="420" cy="95" r="2" fill="#00E6FF" opacity="0.3"/>
    <!-- Row 4 (y~150) -->
    <circle cx="60" cy="148" r="3" fill="#00AFF0" opacity="0.45"/>
    <circle cx="100" cy="155" r="3.5" fill="#00E6FF" opacity="0.55"/>
    <circle cx="140" cy="145" r="2.5" fill="#00AFF0" opacity="0.4"/>
    <circle cx="175" cy="152" r="4" fill="#00E6FF" opacity="0.6"/>
    <circle cx="210" cy="142" r="3" fill="#00AFF0" opacity="0.5"/>
    <circle cx="245" cy="155" r="3.5" fill="#00E6FF" opacity="0.55"/>
    <circle cx="280" cy="148" r="2.5" fill="#00AFF0" opacity="0.45"/>
    <circle cx="315" cy="150" r="4" fill="#00E6FF" opacity="0.6"/>
    <circle cx="350" cy="145" r="3" fill="#00AFF0" opacity="0.5"/>
    <circle cx="385" cy="152" r="3.5" fill="#00E6FF" opacity="0.55"/>
    <circle cx="420" cy="148" r="2" fill="#00AFF0" opacity="0.35"/>
    <circle cx="455" cy="155" r="2.5" fill="#00E6FF" opacity="0.4"/>
    <!-- Row 5 (y~200) -->
    <circle cx="40" cy="198" r="3.5" fill="#00AFF0" opacity="0.5"/>
    <circle cx="75" cy="205" r="4" fill="#00E6FF" opacity="0.65"/>
    <circle cx="110" cy="195" r="3" fill="#00AFF0" opacity="0.5"/>
    <circle cx="150" cy="202" r="4.5" fill="#00E6FF" opacity="0.7"/>
    <circle cx="190" cy="192" r="3.5" fill="#00AFF0" opacity="0.55"/>
    <circle cx="230" cy="205" r="4" fill="#00E6FF" opacity="0.65"/>
    <circle cx="270" cy="198" r="3" fill="#00AFF0" opacity="0.5"/>
    <circle cx="310" cy="200" r="4.5" fill="#00E6FF" opacity="0.7"/>
    <circle cx="350" cy="195" r="3.5" fill="#00AFF0" opacity="0.55"/>
    <circle cx="390" cy="202" r="4" fill="#00E6FF" opacity="0.6"/>
    <circle cx="430" cy="198" r="3" fill="#00AFF0" opacity="0.45"/>
    <circle cx="465" cy="205" r="2.5" fill="#00E6FF" opacity="0.4"/>
    <!-- Row 6 (y~250 - center, densest) -->
    <circle cx="30" cy="248" r="4" fill="#00AFF0" opacity="0.6"/>
    <circle cx="70" cy="255" r="4.5" fill="#00E6FF" opacity="0.75"/>
    <circle cx="140" cy="245" r="3.5" fill="#00AFF0" opacity="0.55"/>
    <circle cx="180" cy="252" r="5" fill="#00E6FF" opacity="0.8"/>
    <circle cx="220" cy="248" r="4" fill="#00AFF0" opacity="0.65"/>
    <circle cx="260" cy="255" r="4.5" fill="#00E6FF" opacity="0.75"/>
    <circle cx="300" cy="250" r="5" fill="#00AFF0" opacity="0.8"/>
    <circle cx="340" cy="245" r="4" fill="#00E6FF" opacity="0.7"/>
    <circle cx="380" cy="252" r="4.5" fill="#00AFF0" opacity="0.65"/>
    <circle cx="420" cy="248" r="3.5" fill="#00E6FF" opacity="0.55"/>
    <circle cx="460" cy="255" r="3" fill="#00AFF0" opacity="0.45"/>
    <circle cx="490" cy="250" r="2.5" fill="#00E6FF" opacity="0.35"/>
    <!-- Row 7 (y~300) -->
    <circle cx="40" cy="298" r="3.5" fill="#00AFF0" opacity="0.5"/>
    <circle cx="75" cy="305" r="4" fill="#00E6FF" opacity="0.65"/>
    <circle cx="110" cy="295" r="3" fill="#00AFF0" opacity="0.5"/>
    <circle cx="150" cy="302" r="4.5" fill="#00E6FF" opacity="0.7"/>
    <circle cx="190" cy="292" r="3.5" fill="#00AFF0" opacity="0.55"/>
    <circle cx="230" cy="305" r="4" fill="#00E6FF" opacity="0.65"/>
    <circle cx="270" cy="298" r="3" fill="#00AFF0" opacity="0.5"/>
    <circle cx="310" cy="300" r="4.5" fill="#00E6FF" opacity="0.7"/>
    <circle cx="350" cy="295" r="3.5" fill="#00AFF0" opacity="0.55"/>
    <circle cx="390" cy="302" r="4" fill="#00E6FF" opacity="0.6"/>
    <circle cx="430" cy="298" r="3" fill="#00AFF0" opacity="0.45"/>
    <circle cx="465" cy="305" r="2.5" fill="#00E6FF" opacity="0.4"/>
    <!-- Row 8 (y~350) -->
    <circle cx="60" cy="348" r="3" fill="#00AFF0" opacity="0.45"/>
    <circle cx="100" cy="355" r="3.5" fill="#00E6FF" opacity="0.55"/>
    <circle cx="140" cy="345" r="2.5" fill="#00AFF0" opacity="0.4"/>
    <circle cx="175" cy="352" r="4" fill="#00E6FF" opacity="0.6"/>
    <circle cx="210" cy="342" r="3" fill="#00AFF0" opacity="0.5"/>
    <circle cx="245" cy="355" r="3.5" fill="#00E6FF" opacity="0.55"/>
    <circle cx="280" cy="348" r="2.5" fill="#00AFF0" opacity="0.45"/>
    <circle cx="315" cy="350" r="4" fill="#00E6FF" opacity="0.6"/>
    <circle cx="350" cy="345" r="3" fill="#00AFF0" opacity="0.5"/>
    <circle cx="385" cy="352" r="3.5" fill="#00E6FF" opacity="0.55"/>
    <circle cx="420" cy="348" r="2" fill="#00AFF0" opacity="0.35"/>
    <!-- Row 9 (y~400) -->
    <circle cx="120" cy="395" r="2.5" fill="#00AFF0" opacity="0.4"/>
    <circle cx="155" cy="405" r="3" fill="#00E6FF" opacity="0.5"/>
    <circle cx="190" cy="398" r="2" fill="#00AFF0" opacity="0.35"/>
    <circle cx="225" cy="402" r="3.5" fill="#00E6FF" opacity="0.55"/>
    <circle cx="260" cy="395" r="2.5" fill="#00AFF0" opacity="0.4"/>
    <circle cx="295" cy="405" r="3" fill="#00E6FF" opacity="0.5"/>
    <circle cx="330" cy="398" r="2" fill="#00AFF0" opacity="0.35"/>
    <!-- Row 10 (y~450) -->
    <circle cx="150" cy="445" r="2" fill="#00AFF0" opacity="0.3"/>
    <circle cx="185" cy="452" r="2.5" fill="#00E6FF" opacity="0.4"/>
    <circle cx="220" cy="448" r="2" fill="#00AFF0" opacity="0.3"/>
    <circle cx="255" cy="455" r="3" fill="#00E6FF" opacity="0.45"/>
    <!-- Row 11 (y~490) -->
    <circle cx="170" cy="488" r="1.5" fill="#00AFF0" opacity="0.25"/>
    <circle cx="200" cy="495" r="2" fill="#00E6FF" opacity="0.35"/>
    <circle cx="230" cy="490" r="1.5" fill="#00AFF0" opacity="0.25"/>
  </g>
</svg>
