<?xml version="1.0" encoding="UTF-8"?>
<!-- DigiWin Logo with Since 1982: D mark + 鼎捷数智 + Since 1982 -->
<svg xmlns="http://www.w3.org/2000/svg" viewBox="0 0 65.5 18.6">
  <g fill="#00AFF0" transform="translate(-86.359375, -45.265625)">
    <!-- D mark -->
    <path d="M 86.859375 57.765625 C 86.859375 56.574219 87.828125 55.605469 89.019531 55.605469 L 92.742188 55.605469 C 94.863281 55.605469 96.582031 53.886719 96.582031 51.765625 C 96.582031 49.644531 94.863281 47.925781 92.742188 47.925781 L 89.019531 47.925781 C 87.828125 47.925781 86.859375 46.957031 86.859375 45.765625 L 92.742188 45.765625 C 96.054688 45.765625 98.742188 48.453125 98.742188 51.765625 C 98.742188 55.078125 96.054688 57.765625 92.742188 57.765625 Z M 86.859375 57.765625 "/>
    <path d="M 87.496094 51.765625 C 87.496094 50.910156 88.1875 50.21875 89.042969 50.21875 C 89.898438 50.21875 90.589844 50.910156 90.589844 51.765625 C 90.589844 52.621094 89.898438 53.3125 89.042969 53.3125 C 88.1875 53.3125 87.496094 52.621094 87.496094 51.765625 "/>
    <!-- 鼎捷数智 Chinese characters -->
    <path d="M 105.6875 52.421875 L 102.957031 52.421875 C 102.835938 52.421875 102.738281 52.324219 102.738281 52.203125 L 102.738281 47.019531 C 102.738281 46.675781 102.460938 46.398438 102.117188 46.398438 L 101.535156 46.398438 L 101.535156 52.664062 C 101.535156 53.15625 101.933594 53.554688 102.425781 53.554688 L 105.050781 53.554688 L 105.050781 54.277344 L 101.269531 54.277344 L 101.269531 54.832031 C 101.269531 55.105469 101.492188 55.328125 101.765625 55.328125 L 102.261719 55.328125 C 102.261719 56.753906 101.460938 57.726562 101.460938 57.726562 L 102.839844 57.726562 C 102.839844 57.726562 103.507812 56.734375 103.507812 55.328125 L 105.050781 55.328125 L 105.050781 57.726562 L 106.257812 57.726562 L 106.257812 52.992188 C 106.257812 52.679688 106 52.421875 105.6875 52.421875 M 104.835938 50.125 L 109.109375 50.125 L 109.109375 50.757812 L 104.835938 50.757812 Z M 104.835938 48.597656 L 109.109375 48.597656 L 109.109375 49.230469 L 104.835938 49.230469 Z M 104.835938 47.003906 L 109.109375 47.003906 L 109.109375 47.636719 L 104.835938 47.636719 Z M 104.101562 51.816406 L 109.835938 51.816406 C 110.097656 51.816406 110.3125 51.605469 110.3125 51.34375 L 110.3125 46.023438 L 103.628906 46.023438 L 103.628906 51.34375 C 103.628906 51.605469 103.839844 51.816406 104.101562 51.816406 M 111.984375 54.277344 L 108.890625 54.277344 L 108.890625 53.554688 L 111.515625 53.554688 C 112.007812 53.554688 112.40625 53.15625 112.40625 52.664062 L 112.40625 46.398438 L 111.824219 46.398438 C 111.480469 46.398438 111.203125 46.675781 111.203125 47.019531 L 111.203125 52.203125 C 111.203125 52.324219 111.105469 52.421875 110.980469 52.421875 L 108.253906 52.421875 C 107.941406 52.421875 107.683594 52.679688 107.683594 52.992188 L 107.683594 57.726562 L 108.890625 57.726562 L 108.890625 55.328125 L 111.15625 55.328125 C 111.289062 55.328125 111.394531 55.433594 111.394531 55.566406 L 111.394531 57.738281 L 112.601562 57.738281 L 112.601562 54.894531 C 112.601562 54.554688 112.324219 54.277344 111.984375 54.277344 "/>
    <path d="M 144.042969 50.445312 L 144.941406 51.585938 C 145.027344 51.695312 145.164062 51.824219 145.453125 51.824219 L 146.652344 51.824219 L 145 49.839844 L 145.941406 49.839844 C 146.222656 49.839844 146.453125 49.609375 146.453125 49.324219 L 146.453125 48.835938 L 144.375 48.835938 L 144.375 47.621094 L 145.726562 47.621094 C 146.007812 47.621094 146.238281 47.390625 146.238281 47.105469 L 146.238281 46.582031 L 142.753906 46.582031 C 142.839844 46.273438 142.867188 46.007812 142.867188 45.851562 L 141.742188 45.851562 C 141.75 46.277344 141.4375 47.265625 140.464844 47.710938 L 140.464844 48.890625 C 141.339844 48.597656 141.898438 48.117188 142.257812 47.621094 L 143.238281 47.621094 L 143.238281 48.835938 L 140.679688 48.835938 L 140.679688 49.839844 L 143.074219 49.839844 C 142.824219 50.429688 142.089844 51.082031 140.617188 51.332031 L 140.617188 52.453125 C 141.484375 52.351562 143.230469 51.957031 144.042969 50.445312 "/>
    <path d="M 149.5625 54.449219 L 142.835938 54.449219 L 142.835938 53.476562 L 149.5625 53.476562 Z M 149.5625 56.296875 C 149.5625 56.457031 149.429688 56.589844 149.265625 56.589844 L 143.128906 56.589844 C 142.964844 56.589844 142.835938 56.457031 142.835938 56.296875 L 142.835938 55.554688 L 149.5625 55.554688 Z M 141.707031 52.351562 L 141.707031 57.0625 C 141.707031 57.40625 141.984375 57.683594 142.328125 57.683594 L 150.066406 57.683594 C 150.410156 57.683594 150.6875 57.40625 150.6875 57.0625 L 150.6875 52.351562 Z M 141.707031 52.351562 "/>
    <path d="M 150.277344 50.429688 C 150.277344 50.582031 150.152344 50.707031 150 50.707031 L 148.296875 50.707031 C 148.09375 50.707031 147.925781 50.539062 147.925781 50.335938 L 147.925781 47.578125 L 150.277344 47.578125 Z M 146.855469 46.4375 L 146.855469 51.050781 C 146.855469 51.46875 147.195312 51.808594 147.617188 51.808594 L 150.605469 51.808594 C 151.015625 51.808594 151.347656 51.476562 151.347656 51.070312 L 151.347656 46.4375 Z M 146.855469 46.4375 "/>
    <path d="M 131.609375 55.507812 L 129.886719 54.851562 C 130.445312 54.199219 130.921875 53.417969 130.921875 53.417969 L 132.84375 53.417969 C 132.84375 53.417969 132.660156 54.761719 131.609375 55.507812 M 133.988281 52.410156 L 131.347656 52.410156 C 131.472656 52.144531 131.59375 51.855469 131.59375 51.855469 L 130.683594 51.855469 C 130.472656 51.855469 130.332031 51.976562 130.222656 52.164062 C 130.128906 52.328125 130.082031 52.410156 130.082031 52.410156 L 128.011719 52.410156 L 128.011719 52.792969 C 128.011719 53.136719 128.289062 53.417969 128.636719 53.417969 L 129.617188 53.417969 C 129.160156 54.152344 128.40625 55.011719 128.40625 55.011719 C 128.292969 55.117188 128.328125 55.304688 128.46875 55.363281 L 130.394531 56.140625 C 129.765625 56.410156 128.996094 56.585938 128.058594 56.585938 L 128.058594 57.65625 C 129.6875 57.65625 130.886719 57.257812 131.769531 56.722656 L 134.167969 57.742188 L 134.167969 56.800781 C 134.167969 56.660156 134.082031 56.53125 133.953125 56.480469 L 132.738281 55.980469 C 134.21875 54.507812 134.199219 52.652344 134.199219 52.652344 C 134.21875 52.527344 134.117188 52.410156 133.988281 52.410156 M 133.195312 49.117188 L 133.871094 49.117188 C 134.0625 49.117188 134.21875 48.960938 134.21875 48.769531 L 134.21875 48.054688 L 133.257812 48.054688 L 133.839844 46.335938 L 132.953125 46.335938 C 132.804688 46.335938 132.671875 46.429688 132.625 46.570312 L 132.121094 48.054688 L 131.734375 48.054688 L 131.734375 46.121094 C 131.734375 45.925781 131.574219 45.765625 131.378906 45.765625 L 130.664062 45.765625 L 130.664062 48.054688 L 130.21875 48.054688 L 129.675781 46.566406 C 129.625 46.429688 129.496094 46.335938 129.347656 46.335938 L 128.445312 46.335938 L 129.074219 48.054688 L 128.058594 48.054688 L 128.058594 49.117188 L 129.308594 49.117188 C 129.265625 49.550781 129.101562 50.390625 128.039062 50.648438 L 128.039062 51.71875 C 129.824219 51.351562 130.261719 50.007812 130.34375 49.117188 L 130.664062 49.117188 L 130.664062 51.683594 L 131.378906 51.683594 C 131.574219 51.683594 131.734375 51.523438 131.734375 51.328125 L 131.734375 49.117188 L 132.042969 49.117188 L 132.734375 51.238281 C 132.828125 51.480469 133.0625 51.640625 133.324219 51.640625 L 134.050781 51.640625 Z M 133.195312 49.117188 "/>
    <path d="M 124.316406 50.21875 L 122.417969 50.21875 L 122.417969 49.40625 L 124.316406 49.40625 Z M 124.316406 52.085938 L 122.417969 52.085938 L 122.417969 51.269531 L 124.316406 51.269531 Z M 125.519531 50.21875 L 125.519531 48.355469 L 122.417969 48.355469 L 122.417969 47.589844 L 125.160156 47.589844 C 125.480469 47.589844 125.742188 47.328125 125.742188 47.007812 L 125.742188 46.539062 L 122.417969 46.539062 L 122.417969 46.324219 C 122.417969 46.050781 122.195312 45.828125 121.925781 45.828125 L 121.214844 45.828125 L 121.214844 46.539062 L 118.449219 46.539062 L 118.449219 47.589844 L 121.214844 47.589844 L 121.214844 48.355469 L 118.53125 48.355469 L 118.53125 49.40625 L 121.214844 49.40625 L 121.214844 50.21875 L 118.53125 50.21875 L 118.53125 51.269531 L 121.214844 51.269531 L 121.214844 52.085938 L 118.53125 52.085938 L 118.53125 53.136719 L 121.214844 53.136719 L 121.214844 56.585938 C 120.136719 56.585938 119.75 55.410156 119.75 55.410156 C 119.75 55.410156 119.988281 54.757812 119.988281 53.601562 L 118.847656 53.601562 C 118.894531 56.035156 117.585938 56.464844 117.585938 56.464844 L 117.585938 57.765625 C 117.585938 57.765625 118.703125 57.34375 119.207031 56.4375 C 119.207031 56.4375 119.621094 57.660156 121.445312 57.660156 L 125.515625 57.660156 C 125.8125 57.660156 126.058594 57.417969 126.058594 57.117188 L 126.058594 56.609375 L 122.417969 56.609375 L 122.417969 55.3125 L 125.023438 55.3125 C 125.320312 55.3125 125.566406 55.070312 125.566406 54.769531 L 125.566406 54.261719 L 122.417969 54.261719 L 122.417969 53.136719 L 124.660156 53.136719 C 125.136719 53.136719 125.519531 52.753906 125.519531 52.277344 L 125.519531 51.269531 L 125.851562 51.269531 C 126.195312 51.269531 126.472656 50.992188 126.472656 50.648438 L 126.472656 50.21875 Z M 118.074219 51.21875 C 118.074219 51.21875 117.324219 51.601562 116.855469 51.746094 L 116.855469 48.910156 L 117.519531 48.910156 C 117.839844 48.910156 118.101562 48.648438 118.101562 48.328125 L 118.101562 47.707031 L 116.855469 47.707031 L 116.855469 46.386719 C 116.855469 46.078125 116.605469 45.828125 116.296875 45.828125 L 115.648438 45.828125 L 115.648438 47.707031 L 114.429688 47.707031 L 114.429688 48.910156 L 115.648438 48.910156 L 115.648438 52.121094 C 115.117188 52.28125 114.402344 52.355469 114.402344 52.355469 L 114.402344 53.726562 C 114.402344 53.726562 115.003906 53.667969 115.648438 53.484375 L 115.648438 56.105469 C 115.648438 56.34375 115.457031 56.535156 115.222656 56.535156 L 114.574219 56.535156 L 114.574219 57.738281 L 115.585938 57.738281 C 116.285156 57.738281 116.855469 57.171875 116.855469 56.46875 L 116.855469 53.128906 C 117.515625 52.925781 118.074219 52.589844 118.074219 52.589844 Z M 118.074219 51.21875 "/>
    <path d="M 138.765625 48.207031 L 135.351562 48.207031 L 135.363281 47.101562 L 139.289062 47.101562 L 139.289062 47.695312 C 139.289062 47.976562 139.0625 48.207031 138.765625 48.207031 "/>
    <path d="M 137.609375 48.195312 C 137.613281 50.992188 137.457031 54.878906 134.429688 56.484375 L 134.429688 57.726562 C 138.816406 55.546875 138.636719 50.75 138.683594 48.183594 "/>
    <path d="M 134.832031 48.195312 C 134.816406 51.285156 134.753906 55.203125 139.40625 57.742188 L 139.40625 56.4375 C 136.0625 54.449219 135.757812 51.371094 135.878906 48.207031 "/>
    <path d="M 134.367188 51.640625 L 133.457031 51.640625 L 133.347656 51.550781 C 133.347656 51.550781 133.273438 51.546875 133.367188 51.375 C 133.75 50.632812 134.792969 48.460938 135.179688 45.925781 L 136.179688 45.925781 C 136.179688 45.925781 135.703125 49.089844 134.367188 51.640625 "/>
    <!-- Since 1982 -->
    <path d="M 129.429688 62.398438 C 129.429688 62.601562 129.378906 62.777344 129.28125 62.917969 C 129.179688 63.0625 129.039062 63.171875 128.851562 63.25 C 128.667969 63.328125 128.449219 63.367188 128.199219 63.367188 C 128.070312 63.367188 127.949219 63.359375 127.832031 63.347656 C 127.714844 63.332031 127.605469 63.316406 127.511719 63.289062 C 127.414062 63.265625 127.328125 63.238281 127.253906 63.203125 L 127.253906 62.789062 C 127.371094 62.839844 127.515625 62.886719 127.6875 62.925781 C 127.859375 62.96875 128.035156 62.988281 128.21875 62.988281 C 128.390625 62.988281 128.53125 62.96875 128.648438 62.921875 C 128.765625 62.878906 128.851562 62.8125 128.90625 62.730469 C 128.964844 62.644531 128.996094 62.546875 128.996094 62.433594 C 128.996094 62.324219 128.972656 62.226562 128.921875 62.152344 C 128.875 62.074219 128.792969 62.003906 128.675781 61.9375 C 128.558594 61.871094 128.394531 61.800781 128.183594 61.726562 C 128.035156 61.671875 127.90625 61.613281 127.796875 61.550781 C 127.6875 61.488281 127.59375 61.417969 127.519531 61.335938 C 127.445312 61.253906 127.390625 61.164062 127.355469 61.0625 C 127.316406 60.960938 127.296875 60.839844 127.296875 60.707031 C 127.296875 60.523438 127.34375 60.367188 127.4375 60.234375 C 127.53125 60.105469 127.660156 60.003906 127.824219 59.933594 C 127.992188 59.863281 128.183594 59.828125 128.398438 59.828125 C 128.585938 59.828125 128.761719 59.84375 128.917969 59.878906 C 129.074219 59.914062 129.21875 59.964844 129.347656 60.023438 L 129.210938 60.390625 C 129.09375 60.339844 128.964844 60.296875 128.824219 60.261719 C 128.683594 60.226562 128.539062 60.207031 128.386719 60.207031 C 128.242188 60.207031 128.125 60.230469 128.027344 60.273438 C 127.929688 60.3125 127.859375 60.371094 127.808594 60.449219 C 127.761719 60.523438 127.738281 60.609375 127.738281 60.710938 C 127.738281 60.824219 127.761719 60.921875 127.808594 61 C 127.859375 61.078125 127.9375 61.144531 128.046875 61.207031 C 128.15625 61.265625 128.300781 61.332031 128.488281 61.40625 C 128.691406 61.476562 128.863281 61.558594 129.003906 61.640625 C 129.140625 61.726562 129.25 61.832031 129.320312 61.949219 C 129.394531 62.066406 129.429688 62.214844 129.429688 62.398438 "/>
    <path d="M 130.488281 63.316406 L 130.066406 63.316406 L 130.066406 60.734375 L 130.488281 60.734375 Z M 130.28125 59.765625 C 130.347656 59.765625 130.402344 59.785156 130.453125 59.828125 C 130.503906 59.875 130.527344 59.941406 130.527344 60.035156 C 130.527344 60.125 130.503906 60.191406 130.453125 60.238281 C 130.402344 60.28125 130.347656 60.304688 130.28125 60.304688 C 130.210938 60.304688 130.152344 60.28125 130.105469 60.238281 C 130.054688 60.191406 130.03125 60.125 130.03125 60.035156 C 130.03125 59.941406 130.054688 59.875 130.105469 59.828125 C 130.152344 59.785156 130.210938 59.765625 130.28125 59.765625 "/>
    <path d="M 132.550781 60.683594 C 132.859375 60.683594 133.09375 60.761719 133.25 60.910156 C 133.40625 61.058594 133.488281 61.300781 133.488281 61.636719 L 133.488281 63.316406 L 133.066406 63.316406 L 133.066406 61.664062 C 133.066406 61.457031 133.019531 61.300781 132.929688 61.195312 C 132.835938 61.09375 132.6875 61.042969 132.488281 61.042969 C 132.203125 61.042969 132.007812 61.121094 131.898438 61.285156 C 131.785156 61.445312 131.734375 61.675781 131.734375 61.976562 L 131.734375 63.316406 L 131.308594 63.316406 L 131.308594 60.734375 L 131.652344 60.734375 L 131.714844 61.085938 L 131.738281 61.085938 C 131.796875 60.996094 131.867188 60.921875 131.953125 60.863281 C 132.035156 60.800781 132.132812 60.757812 132.234375 60.730469 C 132.335938 60.699219 132.441406 60.683594 132.550781 60.683594 "/>
    <path d="M 135.324219 63.367188 C 135.09375 63.367188 134.890625 63.320312 134.714844 63.226562 C 134.535156 63.132812 134.394531 62.988281 134.292969 62.792969 C 134.191406 62.597656 134.140625 62.34375 134.140625 62.039062 C 134.140625 61.722656 134.195312 61.464844 134.300781 61.265625 C 134.410156 61.066406 134.550781 60.917969 134.734375 60.828125 C 134.914062 60.730469 135.121094 60.683594 135.351562 60.683594 C 135.484375 60.683594 135.609375 60.699219 135.734375 60.726562 C 135.855469 60.753906 135.957031 60.785156 136.03125 60.828125 L 135.902344 61.175781 C 135.824219 61.148438 135.734375 61.121094 135.632812 61.09375 C 135.53125 61.070312 135.433594 61.054688 135.34375 61.054688 C 135.167969 61.054688 135.027344 61.09375 134.914062 61.167969 C 134.800781 61.242188 134.71875 61.351562 134.664062 61.496094 C 134.609375 61.640625 134.582031 61.820312 134.582031 62.035156 C 134.582031 62.242188 134.609375 62.417969 134.664062 62.558594 C 134.71875 62.707031 134.800781 62.8125 134.910156 62.886719 C 135.019531 62.960938 135.15625 63 135.316406 63 C 135.460938 63 135.585938 62.984375 135.691406 62.957031 C 135.800781 62.925781 135.898438 62.890625 135.988281 62.851562 L 135.988281 63.226562 C 135.902344 63.269531 135.804688 63.304688 135.703125 63.328125 C 135.597656 63.351562 135.472656 63.367188 135.324219 63.367188 "/>
    <path d="M 137.59375 61.03125 C 137.390625 61.03125 137.230469 61.097656 137.113281 61.226562 C 136.996094 61.359375 136.925781 61.539062 136.90625 61.769531 L 138.21875 61.769531 C 138.21875 61.621094 138.199219 61.492188 138.152344 61.382812 C 138.109375 61.273438 138.039062 61.1875 137.949219 61.128906 C 137.855469 61.0625 137.738281 61.03125 137.59375 61.03125 M 137.597656 60.683594 C 137.820312 60.683594 138.011719 60.734375 138.167969 60.832031 C 138.328125 60.925781 138.449219 61.0625 138.535156 61.238281 C 138.621094 61.414062 138.664062 61.617188 138.664062 61.851562 L 138.664062 62.109375 L 136.894531 62.109375 C 136.902344 62.398438 136.976562 62.621094 137.117188 62.773438 C 137.261719 62.929688 137.460938 63.003906 137.71875 63.003906 C 137.882812 63.003906 138.027344 62.988281 138.15625 62.957031 C 138.28125 62.929688 138.414062 62.882812 138.546875 62.824219 L 138.546875 63.195312 C 138.417969 63.253906 138.285156 63.296875 138.15625 63.324219 C 138.027344 63.351562 137.875 63.363281 137.699219 63.363281 C 137.457031 63.363281 137.238281 63.316406 137.050781 63.214844 C 136.863281 63.117188 136.714844 62.96875 136.613281 62.769531 C 136.507812 62.574219 136.457031 62.332031 136.457031 62.046875 C 136.457031 61.761719 136.503906 61.519531 136.597656 61.316406 C 136.691406 61.113281 136.828125 60.960938 137 60.847656 C 137.167969 60.738281 137.371094 60.683594 137.597656 60.683594 "/>
    <path d="M 141.875 63.316406 L 141.457031 63.316406 L 141.457031 60.914062 C 141.457031 60.820312 141.460938 60.742188 141.460938 60.675781 C 141.464844 60.613281 141.464844 60.550781 141.46875 60.496094 C 141.472656 60.441406 141.476562 60.378906 141.480469 60.320312 C 141.425781 60.371094 141.378906 60.414062 141.339844 60.449219 C 141.296875 60.484375 141.242188 60.53125 141.179688 60.585938 L 140.8125 60.882812 L 140.589844 60.597656 L 141.523438 59.875 L 141.875 59.875 Z M 141.875 63.316406 "/>
    <path d="M 144.257812 60.183594 C 144.058594 60.183594 143.898438 60.25 143.769531 60.382812 C 143.644531 60.511719 143.578125 60.714844 143.578125 60.984375 C 143.578125 61.207031 143.632812 61.378906 143.742188 61.507812 C 143.847656 61.636719 144.015625 61.699219 144.242188 61.699219 C 144.394531 61.699219 144.527344 61.667969 144.640625 61.605469 C 144.753906 61.542969 144.839844 61.460938 144.902344 61.363281 C 144.964844 61.269531 144.996094 61.167969 144.996094 61.066406 C 144.996094 60.964844 144.980469 60.859375 144.953125 60.753906 C 144.921875 60.652344 144.875 60.554688 144.8125 60.46875 C 144.753906 60.382812 144.675781 60.3125 144.582031 60.261719 C 144.488281 60.210938 144.382812 60.183594 144.257812 60.183594 M 145.425781 61.347656 C 145.425781 61.542969 145.414062 61.738281 145.382812 61.933594 C 145.355469 62.125 145.308594 62.308594 145.242188 62.480469 C 145.175781 62.652344 145.082031 62.804688 144.964844 62.9375 C 144.84375 63.070312 144.691406 63.175781 144.511719 63.253906 C 144.328125 63.328125 144.105469 63.363281 143.84375 63.363281 C 143.78125 63.363281 143.707031 63.359375 143.621094 63.351562 C 143.535156 63.34375 143.464844 63.332031 143.410156 63.316406 L 143.410156 62.957031 C 143.46875 62.976562 143.535156 62.988281 143.613281 63.003906 C 143.691406 63.011719 143.765625 63.019531 143.835938 63.019531 C 144.058594 63.019531 144.246094 62.980469 144.390625 62.90625 C 144.539062 62.835938 144.65625 62.734375 144.742188 62.605469 C 144.828125 62.480469 144.890625 62.332031 144.929688 62.164062 C 144.96875 61.996094 144.992188 61.816406 144.996094 61.632812 L 144.96875 61.632812 C 144.921875 61.703125 144.859375 61.773438 144.785156 61.832031 C 144.710938 61.894531 144.621094 61.941406 144.515625 61.976562 C 144.414062 62.011719 144.289062 62.03125 144.148438 62.03125 C 143.953125 62.03125 143.78125 61.988281 143.628906 61.90625 C 143.480469 61.824219 143.367188 61.707031 143.285156 61.554688 C 143.203125 61.398438 143.160156 61.210938 143.160156 60.988281 C 143.160156 60.75 143.207031 60.542969 143.296875 60.367188 C 143.390625 60.195312 143.515625 60.0625 143.679688 59.96875 C 143.84375 59.875 144.039062 59.828125 144.257812 59.828125 C 144.421875 59.828125 144.578125 59.859375 144.71875 59.921875 C 144.859375 59.984375 144.980469 60.078125 145.089844 60.203125 C 145.195312 60.328125 145.277344 60.484375 145.335938 60.675781 C 145.394531 60.867188 145.425781 61.089844 145.425781 61.347656 "/>
    <path d="M 147.046875 60.171875 C 146.867188 60.171875 146.722656 60.210938 146.609375 60.296875 C 146.496094 60.382812 146.4375 60.507812 146.4375 60.667969 C 146.4375 60.785156 146.464844 60.886719 146.523438 60.964844 C 146.578125 61.046875 146.65625 61.113281 146.75 61.171875 C 146.847656 61.226562 146.953125 61.28125 147.070312 61.332031 C 147.183594 61.28125 147.28125 61.230469 147.371094 61.171875 C 147.457031 61.113281 147.53125 61.046875 147.582031 60.964844 C 147.636719 60.882812 147.664062 60.78125 147.664062 60.667969 C 147.664062 60.507812 147.605469 60.382812 147.492188 60.296875 C 147.382812 60.210938 147.230469 60.171875 147.046875 60.171875 M 146.328125 62.445312 C 146.328125 62.613281 146.386719 62.75 146.503906 62.863281 C 146.625 62.972656 146.808594 63.027344 147.054688 63.027344 C 147.289062 63.027344 147.46875 62.972656 147.59375 62.863281 C 147.714844 62.75 147.777344 62.605469 147.777344 62.429688 C 147.777344 62.316406 147.75 62.21875 147.6875 62.132812 C 147.628906 62.050781 147.546875 61.972656 147.4375 61.90625 C 147.332031 61.839844 147.203125 61.777344 147.054688 61.722656 L 146.976562 61.691406 C 146.835938 61.753906 146.71875 61.820312 146.621094 61.890625 C 146.523438 61.960938 146.453125 62.042969 146.402344 62.132812 C 146.351562 62.222656 146.328125 62.324219 146.328125 62.445312 M 147.050781 59.828125 C 147.253906 59.828125 147.429688 59.859375 147.585938 59.921875 C 147.738281 59.984375 147.859375 60.078125 147.949219 60.199219 C 148.039062 60.320312 148.082031 60.472656 148.082031 60.652344 C 148.082031 60.792969 148.050781 60.910156 147.992188 61.011719 C 147.933594 61.117188 147.851562 61.207031 147.753906 61.285156 C 147.65625 61.363281 147.546875 61.433594 147.425781 61.496094 C 147.566406 61.5625 147.695312 61.640625 147.8125 61.722656 C 147.925781 61.808594 148.019531 61.90625 148.089844 62.019531 C 148.15625 62.132812 148.191406 62.269531 148.191406 62.425781 C 148.191406 62.617188 148.144531 62.785156 148.050781 62.925781 C 147.960938 63.0625 147.828125 63.171875 147.660156 63.25 C 147.492188 63.328125 147.292969 63.363281 147.0625 63.363281 C 146.816406 63.363281 146.605469 63.328125 146.433594 63.253906 C 146.261719 63.179688 146.132812 63.074219 146.046875 62.9375 C 145.957031 62.804688 145.914062 62.636719 145.914062 62.441406 C 145.914062 62.28125 145.945312 62.144531 146.011719 62.03125 C 146.078125 61.914062 146.164062 61.816406 146.273438 61.730469 C 146.382812 61.648438 146.5 61.578125 146.625 61.519531 C 146.511719 61.457031 146.410156 61.382812 146.320312 61.300781 C 146.226562 61.21875 146.15625 61.125 146.101562 61.019531 C 146.050781 60.910156 146.023438 60.789062 146.023438 60.648438 C 146.023438 60.46875 146.070312 60.320312 146.160156 60.199219 C 146.25 60.082031 146.371094 59.988281 146.523438 59.925781 C 146.679688 59.859375 146.855469 59.828125 147.050781 59.828125 "/>
    <path d="M 150.941406 63.316406 L 148.664062 63.316406 L 148.664062 62.964844 L 149.566406 62.054688 C 149.738281 61.882812 149.886719 61.726562 150.003906 61.589844 C 150.125 61.457031 150.214844 61.324219 150.273438 61.195312 C 150.335938 61.066406 150.367188 60.921875 150.367188 60.765625 C 150.367188 60.578125 150.308594 60.433594 150.195312 60.335938 C 150.085938 60.238281 149.9375 60.191406 149.757812 60.191406 C 149.589844 60.191406 149.445312 60.21875 149.316406 60.277344 C 149.191406 60.335938 149.0625 60.414062 148.929688 60.515625 L 148.703125 60.234375 C 148.792969 60.15625 148.890625 60.085938 149 60.027344 C 149.105469 59.964844 149.222656 59.914062 149.351562 59.878906 C 149.480469 59.84375 149.613281 59.828125 149.757812 59.828125 C 149.972656 59.828125 150.160156 59.863281 150.3125 59.9375 C 150.46875 60.011719 150.585938 60.117188 150.671875 60.253906 C 150.757812 60.390625 150.800781 60.554688 150.800781 60.742188 C 150.800781 60.925781 150.761719 61.09375 150.6875 61.25 C 150.613281 61.40625 150.511719 61.5625 150.378906 61.714844 C 150.25 61.867188 150.09375 62.03125 149.917969 62.203125 L 149.199219 62.914062 L 149.199219 62.929688 L 150.941406 62.929688 Z M 150.941406 63.316406 "/>
  </g>
</svg>
