<svg xmlns="http://www.w3.org/2000/svg" viewBox="0 0 16.73 16.89" width="16.73" height="16.89">
  <!-- DigiWin D Mark (white version) - extracted from brand guidelines -->
  <!-- Arc shape (main body of the D) -->
  <path fill="#ffffff" fill-rule="nonzero" d="M 0 16.890625 C 0 15.210938 1.363281 13.851562 3.039062 13.851562 L 8.277344 13.851562 C 11.261719 13.851562 13.683594 11.429688 13.683594 8.445312 C 13.683594 5.457031 11.261719 3.039062 8.277344 3.039062 L 3.039062 3.039062 C 1.363281 3.039062 0 1.675781 0 0 L 8.277344 0 C 12.941406 0 16.722656 3.78125 16.722656 8.445312 C 16.722656 13.109375 12.941406 16.890625 8.277344 16.890625 Z M 0 16.890625"/>
  <!-- Circle/dot (the "eye" of the D) -->
  <path fill="#ffffff" fill-rule="nonzero" d="M 0.894531 8.445312 C 0.894531 7.242188 1.871094 6.265625 3.074219 6.265625 C 4.273438 6.265625 5.25 7.242188 5.25 8.445312 C 5.25 9.644531 4.273438 10.621094 3.074219 10.621094 C 1.871094 10.621094 0.894531 9.644531 0.894531 8.445312"/>
</svg>
