<svg xmlns="http://www.w3.org/2000/svg" viewBox="0 0 2880 400" width="2880" height="400" fill="none">
  <!-- DigiWin Particle Wave - Flow variant (primary: hero backgrounds, CTA sections) -->
  <!-- 2880px wide (2x viewport) for seamless horizontal drift animation -->
  <!-- ~300 circles with sine-wave displacement, perspective depth -->
  <!-- Foreground dots: larger/brighter. Background dots: smaller/dimmer -->
  <g class="dw-wave-dots">
    <!-- Background layer (small, dim, top) -->
    <circle cx="40" cy="60" r="1" fill="#00E6FF" opacity="0.15"/><circle cx="110" cy="45" r="1.2" fill="#00AFF0" opacity="0.12"/><circle cx="180" cy="70" r="0.8" fill="#00E6FF" opacity="0.1"/><circle cx="250" cy="50" r="1" fill="#00AFF0" opacity="0.15"/><circle cx="320" cy="65" r="1.2" fill="#00E6FF" opacity="0.12"/><circle cx="390" cy="40" r="0.8" fill="#00AFF0" opacity="0.1"/><circle cx="460" cy="55" r="1" fill="#00E6FF" opacity="0.15"/><circle cx="530" cy="72" r="1.2" fill="#00AFF0" opacity="0.12"/><circle cx="600" cy="48" r="0.8" fill="#00E6FF" opacity="0.1"/><circle cx="670" cy="62" r="1" fill="#00AFF0" opacity="0.15"/><circle cx="740" cy="42" r="1.2" fill="#00E6FF" opacity="0.12"/><circle cx="810" cy="68" r="0.8" fill="#00AFF0" opacity="0.1"/><circle cx="880" cy="52" r="1" fill="#00E6FF" opacity="0.15"/><circle cx="950" cy="75" r="1.2" fill="#00AFF0" opacity="0.12"/><circle cx="1020" cy="44" r="0.8" fill="#00E6FF" opacity="0.1"/><circle cx="1090" cy="58" r="1" fill="#00AFF0" opacity="0.15"/><circle cx="1160" cy="70" r="1.2" fill="#00E6FF" opacity="0.12"/><circle cx="1230" cy="46" r="0.8" fill="#00AFF0" opacity="0.1"/><circle cx="1300" cy="60" r="1" fill="#00E6FF" opacity="0.15"/><circle cx="1370" cy="48" r="1.2" fill="#00AFF0" opacity="0.12"/>
    <!-- Repeat for second half (seamless loop) -->
    <circle cx="1480" cy="60" r="1" fill="#00E6FF" opacity="0.15"/><circle cx="1550" cy="45" r="1.2" fill="#00AFF0" opacity="0.12"/><circle cx="1620" cy="70" r="0.8" fill="#00E6FF" opacity="0.1"/><circle cx="1690" cy="50" r="1" fill="#00AFF0" opacity="0.15"/><circle cx="1760" cy="65" r="1.2" fill="#00E6FF" opacity="0.12"/><circle cx="1830" cy="40" r="0.8" fill="#00AFF0" opacity="0.1"/><circle cx="1900" cy="55" r="1" fill="#00E6FF" opacity="0.15"/><circle cx="1970" cy="72" r="1.2" fill="#00AFF0" opacity="0.12"/><circle cx="2040" cy="48" r="0.8" fill="#00E6FF" opacity="0.1"/><circle cx="2110" cy="62" r="1" fill="#00AFF0" opacity="0.15"/><circle cx="2180" cy="42" r="1.2" fill="#00E6FF" opacity="0.12"/><circle cx="2250" cy="68" r="0.8" fill="#00AFF0" opacity="0.1"/><circle cx="2320" cy="52" r="1" fill="#00E6FF" opacity="0.15"/><circle cx="2390" cy="75" r="1.2" fill="#00AFF0" opacity="0.12"/><circle cx="2460" cy="44" r="0.8" fill="#00E6FF" opacity="0.1"/><circle cx="2530" cy="58" r="1" fill="#00AFF0" opacity="0.15"/><circle cx="2600" cy="70" r="1.2" fill="#00E6FF" opacity="0.12"/><circle cx="2670" cy="46" r="0.8" fill="#00AFF0" opacity="0.1"/><circle cx="2740" cy="60" r="1" fill="#00E6FF" opacity="0.15"/><circle cx="2810" cy="48" r="1.2" fill="#00AFF0" opacity="0.12"/>

    <!-- Mid layer (medium dots, sine wave y=120-200) -->
    <circle cx="30" cy="140" r="1.8" fill="#00AFF0" opacity="0.2"/><circle cx="80" cy="155" r="2" fill="#00E6FF" opacity="0.25"/><circle cx="130" cy="170" r="1.5" fill="#00AFF0" opacity="0.2"/><circle cx="180" cy="180" r="2.2" fill="#00E6FF" opacity="0.28"/><circle cx="230" cy="175" r="1.8" fill="#00AFF0" opacity="0.22"/><circle cx="280" cy="160" r="2" fill="#00E6FF" opacity="0.25"/><circle cx="330" cy="145" r="1.5" fill="#00AFF0" opacity="0.2"/><circle cx="380" cy="135" r="2.2" fill="#00E6FF" opacity="0.28"/><circle cx="430" cy="140" r="1.8" fill="#00AFF0" opacity="0.22"/><circle cx="480" cy="155" r="2" fill="#00E6FF" opacity="0.25"/><circle cx="530" cy="170" r="1.5" fill="#00AFF0" opacity="0.2"/><circle cx="580" cy="182" r="2.2" fill="#00E6FF" opacity="0.28"/><circle cx="630" cy="178" r="1.8" fill="#00AFF0" opacity="0.22"/><circle cx="680" cy="162" r="2" fill="#00E6FF" opacity="0.25"/><circle cx="730" cy="148" r="1.5" fill="#00AFF0" opacity="0.2"/><circle cx="780" cy="138" r="2.2" fill="#00E6FF" opacity="0.28"/><circle cx="830" cy="142" r="1.8" fill="#00AFF0" opacity="0.22"/><circle cx="880" cy="158" r="2" fill="#00E6FF" opacity="0.25"/><circle cx="930" cy="172" r="1.5" fill="#00AFF0" opacity="0.2"/><circle cx="980" cy="185" r="2.2" fill="#00E6FF" opacity="0.28"/><circle cx="1030" cy="180" r="1.8" fill="#00AFF0" opacity="0.22"/><circle cx="1080" cy="165" r="2" fill="#00E6FF" opacity="0.25"/><circle cx="1130" cy="150" r="1.5" fill="#00AFF0" opacity="0.2"/><circle cx="1180" cy="140" r="2.2" fill="#00E6FF" opacity="0.28"/><circle cx="1230" cy="145" r="1.8" fill="#00AFF0" opacity="0.22"/><circle cx="1280" cy="160" r="2" fill="#00E6FF" opacity="0.25"/><circle cx="1330" cy="175" r="1.5" fill="#00AFF0" opacity="0.2"/><circle cx="1380" cy="185" r="2.2" fill="#00E6FF" opacity="0.28"/><circle cx="1430" cy="178" r="1.8" fill="#00AFF0" opacity="0.22"/>
    <!-- Second half -->
    <circle cx="1470" cy="140" r="1.8" fill="#00AFF0" opacity="0.2"/><circle cx="1520" cy="155" r="2" fill="#00E6FF" opacity="0.25"/><circle cx="1570" cy="170" r="1.5" fill="#00AFF0" opacity="0.2"/><circle cx="1620" cy="180" r="2.2" fill="#00E6FF" opacity="0.28"/><circle cx="1670" cy="175" r="1.8" fill="#00AFF0" opacity="0.22"/><circle cx="1720" cy="160" r="2" fill="#00E6FF" opacity="0.25"/><circle cx="1770" cy="145" r="1.5" fill="#00AFF0" opacity="0.2"/><circle cx="1820" cy="135" r="2.2" fill="#00E6FF" opacity="0.28"/><circle cx="1870" cy="140" r="1.8" fill="#00AFF0" opacity="0.22"/><circle cx="1920" cy="155" r="2" fill="#00E6FF" opacity="0.25"/><circle cx="1970" cy="170" r="1.5" fill="#00AFF0" opacity="0.2"/><circle cx="2020" cy="182" r="2.2" fill="#00E6FF" opacity="0.28"/><circle cx="2070" cy="178" r="1.8" fill="#00AFF0" opacity="0.22"/><circle cx="2120" cy="162" r="2" fill="#00E6FF" opacity="0.25"/><circle cx="2170" cy="148" r="1.5" fill="#00AFF0" opacity="0.2"/><circle cx="2220" cy="138" r="2.2" fill="#00E6FF" opacity="0.28"/><circle cx="2270" cy="142" r="1.8" fill="#00AFF0" opacity="0.22"/><circle cx="2320" cy="158" r="2" fill="#00E6FF" opacity="0.25"/><circle cx="2370" cy="172" r="1.5" fill="#00AFF0" opacity="0.2"/><circle cx="2420" cy="185" r="2.2" fill="#00E6FF" opacity="0.28"/><circle cx="2470" cy="180" r="1.8" fill="#00AFF0" opacity="0.22"/><circle cx="2520" cy="165" r="2" fill="#00E6FF" opacity="0.25"/><circle cx="2570" cy="150" r="1.5" fill="#00AFF0" opacity="0.2"/><circle cx="2620" cy="140" r="2.2" fill="#00E6FF" opacity="0.28"/><circle cx="2670" cy="145" r="1.8" fill="#00AFF0" opacity="0.22"/><circle cx="2720" cy="160" r="2" fill="#00E6FF" opacity="0.25"/><circle cx="2770" cy="175" r="1.5" fill="#00AFF0" opacity="0.2"/><circle cx="2820" cy="185" r="2.2" fill="#00E6FF" opacity="0.28"/><circle cx="2870" cy="178" r="1.8" fill="#00AFF0" opacity="0.22"/>

    <!-- Foreground layer (large dots, bright, sine wave y=240-360) -->
    <circle cx="20" cy="260" r="2.5" fill="#00AFF0" opacity="0.35"/><circle cx="60" cy="280" r="3" fill="#00E6FF" opacity="0.45"/><circle cx="100" cy="300" r="3.5" fill="#00AFF0" opacity="0.5"/><circle cx="140" cy="320" r="4" fill="#00E6FF" opacity="0.6"/><circle cx="180" cy="335" r="4.5" fill="#00AFF0" opacity="0.65"/><circle cx="220" cy="340" r="4" fill="#00E6FF" opacity="0.6"/><circle cx="260" cy="330" r="3.5" fill="#00AFF0" opacity="0.55"/><circle cx="300" cy="310" r="3" fill="#00E6FF" opacity="0.45"/><circle cx="340" cy="290" r="2.5" fill="#00AFF0" opacity="0.4"/><circle cx="380" cy="270" r="3" fill="#00E6FF" opacity="0.45"/><circle cx="420" cy="258" r="3.5" fill="#00AFF0" opacity="0.5"/><circle cx="460" cy="262" r="4" fill="#00E6FF" opacity="0.55"/><circle cx="500" cy="278" r="4.5" fill="#00AFF0" opacity="0.6"/><circle cx="540" cy="298" r="4" fill="#00E6FF" opacity="0.55"/><circle cx="580" cy="318" r="3.5" fill="#00AFF0" opacity="0.5"/><circle cx="620" cy="335" r="4.5" fill="#00E6FF" opacity="0.65"/><circle cx="660" cy="342" r="4" fill="#00AFF0" opacity="0.6"/><circle cx="700" cy="332" r="3.5" fill="#00E6FF" opacity="0.55"/><circle cx="740" cy="312" r="3" fill="#00AFF0" opacity="0.45"/><circle cx="780" cy="292" r="2.5" fill="#00E6FF" opacity="0.4"/><circle cx="820" cy="272" r="3" fill="#00AFF0" opacity="0.45"/><circle cx="860" cy="260" r="3.5" fill="#00E6FF" opacity="0.5"/><circle cx="900" cy="265" r="4" fill="#00AFF0" opacity="0.55"/><circle cx="940" cy="282" r="4.5" fill="#00E6FF" opacity="0.6"/><circle cx="980" cy="302" r="4" fill="#00AFF0" opacity="0.55"/><circle cx="1020" cy="322" r="3.5" fill="#00E6FF" opacity="0.5"/><circle cx="1060" cy="338" r="4.5" fill="#00AFF0" opacity="0.65"/><circle cx="1100" cy="345" r="4" fill="#00E6FF" opacity="0.6"/><circle cx="1140" cy="335" r="3.5" fill="#00AFF0" opacity="0.55"/><circle cx="1180" cy="315" r="3" fill="#00E6FF" opacity="0.45"/><circle cx="1220" cy="295" r="2.5" fill="#00AFF0" opacity="0.4"/><circle cx="1260" cy="275" r="3" fill="#00E6FF" opacity="0.45"/><circle cx="1300" cy="262" r="3.5" fill="#00AFF0" opacity="0.5"/><circle cx="1340" cy="268" r="4" fill="#00E6FF" opacity="0.55"/><circle cx="1380" cy="285" r="4.5" fill="#00AFF0" opacity="0.6"/><circle cx="1420" cy="305" r="4" fill="#00E6FF" opacity="0.55"/>
    <!-- Second half -->
    <circle cx="1460" cy="260" r="2.5" fill="#00AFF0" opacity="0.35"/><circle cx="1500" cy="280" r="3" fill="#00E6FF" opacity="0.45"/><circle cx="1540" cy="300" r="3.5" fill="#00AFF0" opacity="0.5"/><circle cx="1580" cy="320" r="4" fill="#00E6FF" opacity="0.6"/><circle cx="1620" cy="335" r="4.5" fill="#00AFF0" opacity="0.65"/><circle cx="1660" cy="340" r="4" fill="#00E6FF" opacity="0.6"/><circle cx="1700" cy="330" r="3.5" fill="#00AFF0" opacity="0.55"/><circle cx="1740" cy="310" r="3" fill="#00E6FF" opacity="0.45"/><circle cx="1780" cy="290" r="2.5" fill="#00AFF0" opacity="0.4"/><circle cx="1820" cy="270" r="3" fill="#00E6FF" opacity="0.45"/><circle cx="1860" cy="258" r="3.5" fill="#00AFF0" opacity="0.5"/><circle cx="1900" cy="262" r="4" fill="#00E6FF" opacity="0.55"/><circle cx="1940" cy="278" r="4.5" fill="#00AFF0" opacity="0.6"/><circle cx="1980" cy="298" r="4" fill="#00E6FF" opacity="0.55"/><circle cx="2020" cy="318" r="3.5" fill="#00AFF0" opacity="0.5"/><circle cx="2060" cy="335" r="4.5" fill="#00E6FF" opacity="0.65"/><circle cx="2100" cy="342" r="4" fill="#00AFF0" opacity="0.6"/><circle cx="2140" cy="332" r="3.5" fill="#00E6FF" opacity="0.55"/><circle cx="2180" cy="312" r="3" fill="#00AFF0" opacity="0.45"/><circle cx="2220" cy="292" r="2.5" fill="#00E6FF" opacity="0.4"/><circle cx="2260" cy="272" r="3" fill="#00AFF0" opacity="0.45"/><circle cx="2300" cy="260" r="3.5" fill="#00E6FF" opacity="0.5"/><circle cx="2340" cy="265" r="4" fill="#00AFF0" opacity="0.55"/><circle cx="2380" cy="282" r="4.5" fill="#00E6FF" opacity="0.6"/><circle cx="2420" cy="302" r="4" fill="#00AFF0" opacity="0.55"/><circle cx="2460" cy="322" r="3.5" fill="#00E6FF" opacity="0.5"/><circle cx="2500" cy="338" r="4.5" fill="#00AFF0" opacity="0.65"/><circle cx="2540" cy="345" r="4" fill="#00E6FF" opacity="0.6"/><circle cx="2580" cy="335" r="3.5" fill="#00AFF0" opacity="0.55"/><circle cx="2620" cy="315" r="3" fill="#00E6FF" opacity="0.45"/><circle cx="2660" cy="295" r="2.5" fill="#00AFF0" opacity="0.4"/><circle cx="2700" cy="275" r="3" fill="#00E6FF" opacity="0.45"/><circle cx="2740" cy="262" r="3.5" fill="#00AFF0" opacity="0.5"/><circle cx="2780" cy="268" r="4" fill="#00E6FF" opacity="0.55"/><circle cx="2820" cy="285" r="4.5" fill="#00AFF0" opacity="0.6"/><circle cx="2860" cy="305" r="4" fill="#00E6FF" opacity="0.55"/>

    <!-- Bottom accent dots (sparse, large) -->
    <circle cx="90" cy="365" r="3" fill="#00AFF0" opacity="0.3"/><circle cx="230" cy="375" r="3.5" fill="#00E6FF" opacity="0.35"/><circle cx="370" cy="360" r="2.5" fill="#00AFF0" opacity="0.25"/><circle cx="510" cy="380" r="3" fill="#00E6FF" opacity="0.3"/><circle cx="650" cy="370" r="3.5" fill="#00AFF0" opacity="0.35"/><circle cx="790" cy="365" r="2.5" fill="#00E6FF" opacity="0.25"/><circle cx="930" cy="378" r="3" fill="#00AFF0" opacity="0.3"/><circle cx="1070" cy="368" r="3.5" fill="#00E6FF" opacity="0.35"/><circle cx="1210" cy="362" r="2.5" fill="#00AFF0" opacity="0.25"/><circle cx="1350" cy="375" r="3" fill="#00E6FF" opacity="0.3"/>
    <circle cx="1530" cy="365" r="3" fill="#00AFF0" opacity="0.3"/><circle cx="1670" cy="375" r="3.5" fill="#00E6FF" opacity="0.35"/><circle cx="1810" cy="360" r="2.5" fill="#00AFF0" opacity="0.25"/><circle cx="1950" cy="380" r="3" fill="#00E6FF" opacity="0.3"/><circle cx="2090" cy="370" r="3.5" fill="#00AFF0" opacity="0.35"/><circle cx="2230" cy="365" r="2.5" fill="#00E6FF" opacity="0.25"/><circle cx="2370" cy="378" r="3" fill="#00AFF0" opacity="0.3"/><circle cx="2510" cy="368" r="3.5" fill="#00E6FF" opacity="0.35"/><circle cx="2650" cy="362" r="2.5" fill="#00AFF0" opacity="0.25"/><circle cx="2790" cy="375" r="3" fill="#00E6FF" opacity="0.3"/>
  </g>
</svg>
