<svg xmlns="http://www.w3.org/2000/svg" viewBox="0 0 27.94 7.86" width="27.94" height="7.86">
  <!-- DigiWin English wordmark - extracted from brand guidelines page 37 -->
  <!-- D (arc) -->
  <path fill="#00AFF0" fill-rule="nonzero" d="M 0 5.6875 C 0 5.121093 0.457031 4.664062 1.023438 4.664062 L 2.785156 4.664062 C 3.789062 4.664062 4.605469 3.847656 4.605469 2.84375 C 4.605469 1.839843 3.789062 1.023437 2.785156 1.023437 L 1.023438 1.023437 C 0.457031 1.023437 0 0.566406 0 0 L 2.785156 0 C 4.355469 0 5.625 1.273437 5.625 2.84375 C 5.625 4.414062 4.355469 5.6875 2.785156 5.6875 Z M 0 5.6875"/>
  <!-- D (dot) -->
  <path fill="#00AFF0" fill-rule="nonzero" d="M 0.300781 2.84375 C 0.300781 2.4375 0.628906 2.109374 1.03125 2.109374 C 1.4375 2.109374 1.765625 2.4375 1.765625 2.84375 C 1.765625 3.25 1.4375 3.578124 1.03125 3.578124 C 0.628906 3.578124 0.300781 3.25 0.300781 2.84375"/>
  <!-- i (stem) -->
  <path fill="#00AFF0" fill-rule="nonzero" d="M 6.542969 1.359374 L 6.429688 1.359374 L 6.429688 5.683593 L 7.402344 5.683593 L 7.402344 2.21875 C 7.402344 1.742187 7.019531 1.359374 6.542969 1.359374"/>
  <!-- i (dot) -->
  <path fill="#00AFF0" fill-rule="nonzero" d="M 6.917969 0.023437 C 7.1875 0.023437 7.40625 0.242187 7.40625 0.511718 C 7.40625 0.78125 7.1875 1 6.917969 1 C 6.648438 1 6.429688 0.78125 6.429688 0.511718 C 6.429688 0.242187 6.648438 0.023437 6.917969 0.023437"/>
  <!-- g -->
  <path fill="#00AFF0" fill-rule="nonzero" d="M 11.390625 3.792968 L 11.390625 4.714843 L 10.347656 4.714843 C 9.707031 4.714843 9.191406 4.183593 9.191406 3.527343 L 9.191406 3.519531 C 9.191406 2.863281 9.707031 2.332031 10.347656 2.332031 L 11.492188 2.332031 C 11.566406 2.332031 11.636719 2.324218 11.703125 2.308593 C 12.140625 2.210937 12.46875 1.824218 12.472656 1.359374 L 10.347656 1.359374 C 9.171875 1.359374 8.214844 2.328124 8.214844 3.523437 C 8.214844 4.71875 9.171875 5.6875 10.347656 5.6875 L 11.390625 5.6875 C 11.390625 6.53125 10.773438 6.894531 10.03125 6.894531 C 8.953125 6.894531 8.304688 6.449218 8.304688 6.449218 L 8.304688 6.453124 C 8.300781 6.449218 8.300781 6.449218 8.300781 6.449218 L 8.300781 7.46875 C 8.648438 7.640624 9.238281 7.851562 10.042969 7.851562 C 10.042969 7.851562 10.042969 7.851562 10.046875 7.851562 C 11.5 7.851562 12.332031 6.996093 12.363281 5.765624 L 12.363281 2.8125 C 11.824219 2.816406 11.390625 3.253906 11.390625 3.792968"/>
  <!-- i (stem) -->
  <path fill="#00AFF0" fill-rule="nonzero" d="M 13.394531 1.359374 L 13.28125 1.359374 L 13.28125 5.683593 L 14.257812 5.683593 L 14.257812 2.21875 C 14.257812 1.742187 13.871094 1.359374 13.394531 1.359374"/>
  <!-- i (dot) -->
  <path fill="#00AFF0" fill-rule="nonzero" d="M 13.769531 0.023437 C 14.039062 0.023437 14.257812 0.242187 14.257812 0.511718 C 14.257812 0.78125 14.039062 1 13.769531 1 C 13.5 1 13.28125 0.78125 13.28125 0.511718 C 13.28125 0.242187 13.5 0.023437 13.769531 0.023437"/>
  <!-- w -->
  <path fill="#00AFF0" fill-rule="nonzero" d="M 21.171875 1.359374 L 20.746094 1.359374 C 20.40625 1.359374 20.113281 1.589843 20.023438 1.914062 L 19.378906 4.339843 L 18.558594 1.726562 L 18.503906 1.550781 C 18.46875 1.4375 18.367188 1.359374 18.25 1.359374 L 17.832031 1.359374 C 17.714844 1.359374 17.613281 1.4375 17.578125 1.550781 L 17.523438 1.726562 L 16.703125 4.339843 L 16.058594 1.914062 C 15.96875 1.589843 15.671875 1.359374 15.332031 1.359374 L 14.910156 1.359374 L 15.910156 5.167968 C 15.992188 5.472656 16.265625 5.6875 16.578125 5.6875 L 17.105469 5.6875 C 17.222656 5.6875 17.324219 5.609374 17.359375 5.5 L 18.039062 3.300781 L 18.722656 5.5 C 18.757812 5.609374 18.859375 5.6875 18.976562 5.6875 L 19.5 5.6875 C 19.816406 5.6875 20.089844 5.472656 20.167969 5.167968 Z M 21.171875 1.359374"/>
  <!-- i (stem) -->
  <path fill="#00AFF0" fill-rule="nonzero" d="M 21.9375 1.359374 L 21.824219 1.359374 L 21.824219 5.683593 L 22.796875 5.683593 L 22.796875 2.21875 C 22.796875 1.742187 22.414062 1.359374 21.9375 1.359374"/>
  <!-- i (dot) -->
  <path fill="#00AFF0" fill-rule="nonzero" d="M 22.3125 0.023437 C 22.582031 0.023437 22.800781 0.242187 22.800781 0.511718 C 22.800781 0.78125 22.582031 1 22.3125 1 C 22.042969 1 21.824219 0.78125 21.824219 0.511718 C 21.824219 0.242187 22.042969 0.023437 22.3125 0.023437"/>
  <!-- n -->
  <path fill="#00AFF0" fill-rule="nonzero" d="M 27.933594 3.492187 C 27.933594 2.3125 26.964844 1.359374 25.769531 1.359374 C 25.324219 1.359374 24.910156 1.492187 24.5625 1.722656 C 24.507812 1.511718 24.320312 1.359374 24.09375 1.359374 L 23.609375 1.359374 L 23.609375 5.199218 C 23.609375 5.199218 23.609375 5.199218 23.609375 5.203124 L 23.609375 5.683593 L 24.09375 5.683593 C 24.363281 5.683593 24.582031 5.46875 24.582031 5.199218 L 24.582031 3.4375 C 24.609375 2.824218 25.128906 2.332031 25.765625 2.332031 L 25.773438 2.332031 C 26.429688 2.332031 26.960938 2.851562 26.960938 3.492187 L 26.960938 5.199218 C 26.960938 5.46875 27.179688 5.683593 27.445312 5.683593 L 27.933594 5.683593 Z M 27.933594 3.492187"/>
</svg>
