<svg xmlns="http://www.w3.org/2000/svg" viewBox="0 0 1440 120" width="1440" height="120" fill="none">
  <!-- DigiWin Particle Wave - Fade variant (section transitions, sparse dots small→large) -->
  <!-- Dots transition from small/dim on left to larger/brighter on right -->
  <!-- Top row (sparse, smallest) -->
  <circle cx="30" cy="15" r="0.5" fill="#00E6FF" opacity="0.08"/>
  <circle cx="120" cy="20" r="0.6" fill="#00AFF0" opacity="0.1"/>
  <circle cx="240" cy="12" r="0.8" fill="#00E6FF" opacity="0.12"/>
  <circle cx="360" cy="18" r="1" fill="#00AFF0" opacity="0.15"/>
  <circle cx="480" cy="14" r="1.2" fill="#00E6FF" opacity="0.18"/>
  <circle cx="600" cy="22" r="1.4" fill="#00AFF0" opacity="0.2"/>
  <circle cx="720" cy="16" r="1.5" fill="#00E6FF" opacity="0.22"/>
  <circle cx="840" cy="20" r="1.6" fill="#00AFF0" opacity="0.24"/>
  <circle cx="960" cy="12" r="1.8" fill="#00E6FF" opacity="0.26"/>
  <circle cx="1080" cy="18" r="2" fill="#00AFF0" opacity="0.28"/>
  <circle cx="1200" cy="15" r="2.2" fill="#00E6FF" opacity="0.3"/>
  <circle cx="1320" cy="22" r="2.4" fill="#00AFF0" opacity="0.32"/>
  <circle cx="1410" cy="14" r="2.5" fill="#00E6FF" opacity="0.34"/>

  <!-- Middle row (main wave) -->
  <circle cx="50" cy="55" r="0.8" fill="#00AFF0" opacity="0.1"/>
  <circle cx="100" cy="62" r="0.9" fill="#00E6FF" opacity="0.12"/>
  <circle cx="160" cy="58" r="1" fill="#00AFF0" opacity="0.14"/>
  <circle cx="220" cy="65" r="1.2" fill="#00E6FF" opacity="0.16"/>
  <circle cx="290" cy="52" r="1.3" fill="#00AFF0" opacity="0.18"/>
  <circle cx="360" cy="60" r="1.5" fill="#00E6FF" opacity="0.2"/>
  <circle cx="430" cy="68" r="1.6" fill="#00AFF0" opacity="0.22"/>
  <circle cx="500" cy="55" r="1.8" fill="#00E6FF" opacity="0.25"/>
  <circle cx="570" cy="62" r="2" fill="#00AFF0" opacity="0.28"/>
  <circle cx="640" cy="58" r="2.2" fill="#00E6FF" opacity="0.3"/>
  <circle cx="710" cy="65" r="2.4" fill="#00AFF0" opacity="0.33"/>
  <circle cx="780" cy="52" r="2.5" fill="#00E6FF" opacity="0.35"/>
  <circle cx="850" cy="60" r="2.8" fill="#00AFF0" opacity="0.38"/>
  <circle cx="920" cy="68" r="3" fill="#00E6FF" opacity="0.4"/>
  <circle cx="990" cy="55" r="3.2" fill="#00AFF0" opacity="0.42"/>
  <circle cx="1060" cy="62" r="3.4" fill="#00E6FF" opacity="0.44"/>
  <circle cx="1130" cy="58" r="3.5" fill="#00AFF0" opacity="0.46"/>
  <circle cx="1200" cy="65" r="3.8" fill="#00E6FF" opacity="0.48"/>
  <circle cx="1270" cy="52" r="4" fill="#00AFF0" opacity="0.5"/>
  <circle cx="1340" cy="60" r="4.2" fill="#00E6FF" opacity="0.52"/>
  <circle cx="1410" cy="58" r="4.5" fill="#00AFF0" opacity="0.55"/>

  <!-- Bottom row (sparse, medium) -->
  <circle cx="80" cy="95" r="0.6" fill="#00E6FF" opacity="0.08"/>
  <circle cx="200" cy="100" r="0.8" fill="#00AFF0" opacity="0.1"/>
  <circle cx="320" cy="92" r="1" fill="#00E6FF" opacity="0.14"/>
  <circle cx="440" cy="98" r="1.3" fill="#00AFF0" opacity="0.18"/>
  <circle cx="560" cy="105" r="1.5" fill="#00E6FF" opacity="0.22"/>
  <circle cx="680" cy="95" r="1.8" fill="#00AFF0" opacity="0.26"/>
  <circle cx="800" cy="102" r="2" fill="#00E6FF" opacity="0.3"/>
  <circle cx="920" cy="98" r="2.3" fill="#00AFF0" opacity="0.34"/>
  <circle cx="1040" cy="105" r="2.5" fill="#00E6FF" opacity="0.38"/>
  <circle cx="1160" cy="95" r="2.8" fill="#00AFF0" opacity="0.42"/>
  <circle cx="1280" cy="100" r="3" fill="#00E6FF" opacity="0.46"/>
  <circle cx="1400" cy="98" r="3.2" fill="#00AFF0" opacity="0.5"/>
</svg>
