<?xml version="1.0" encoding="UTF-8"?>
<!-- DigiWin Full English Company Name: Digiwin Co., Ltd. -->
<svg xmlns="http://www.w3.org/2000/svg" viewBox="0 0 67.7 10.1">
  <g fill="#00AFF0" transform="translate(-84.195312, -73.835938)">
    <!-- D mark (stylized) -->
    <path d="M 87.390625 74.335938 L 84.695312 74.335938 C 84.695312 74.671875 84.8125 74.964844 85.054688 75.203125 C 85.292969 75.445312 85.585938 75.5625 85.921875 75.5625 L 87.273438 75.5625 C 88.703125 75.5625 89.816406 76.828125 89.347656 78.324219 C 89.070312 79.222656 88.207031 79.695312 87.265625 79.695312 L 86.007812 79.695312 C 85.957031 79.695312 85.90625 79.699219 85.859375 79.707031 L 85.859375 77.039062 C 85.859375 76.222656 85.371094 75.953125 84.769531 75.953125 L 84.769531 80.929688 L 87.257812 80.929688 C 87.257812 80.929688 87.257812 80.925781 87.257812 80.925781 L 87.320312 80.925781 C 89.113281 80.925781 90.632812 79.519531 90.683594 77.730469 C 90.738281 75.867188 89.242188 74.335938 87.390625 74.335938 "/>
    <!-- Digiwin wordmark -->
    <path d="M 92.089844 75.910156 L 91.523438 75.910156 L 91.523438 80.929688 L 92.65625 80.929688 L 92.65625 76.472656 C 92.65625 76.160156 92.402344 75.910156 92.089844 75.910156 "/>
    <path d="M 97.277344 78.734375 L 97.277344 79.800781 L 96.070312 79.800781 C 95.328125 79.800781 94.726562 79.183594 94.726562 78.425781 L 94.726562 78.414062 C 94.726562 77.65625 95.328125 77.039062 96.070312 77.039062 L 97.398438 77.039062 C 97.484375 77.039062 97.5625 77.027344 97.640625 77.011719 C 98.148438 76.898438 98.53125 76.449219 98.535156 75.910156 L 96.070312 75.910156 C 94.703125 75.910156 93.597656 77.035156 93.597656 78.421875 C 93.597656 79.804688 94.703125 80.929688 96.070312 80.929688 L 97.28125 80.929688 L 97.28125 80.933594 C 97.28125 81.910156 96.566406 82.332031 95.703125 82.332031 C 94.453125 82.332031 93.699219 81.816406 93.699219 81.816406 L 93.699219 81.820312 C 93.695312 81.816406 93.695312 81.816406 93.695312 81.816406 L 93.695312 83 C 94.097656 83.199219 94.78125 83.441406 95.714844 83.441406 L 95.71875 83.441406 C 97.410156 83.441406 98.371094 82.449219 98.410156 81.019531 L 98.410156 77.597656 C 97.785156 77.601562 97.277344 78.109375 97.277344 78.734375 "/>
    <path d="M 100.039062 75.910156 L 99.476562 75.910156 L 99.476562 80.929688 L 100.605469 80.929688 L 100.605469 76.472656 C 100.605469 76.160156 100.351562 75.910156 100.039062 75.910156 "/>
    <path d="M 108.628906 75.910156 L 108.136719 75.910156 C 107.742188 75.910156 107.398438 76.175781 107.296875 76.554688 L 106.546875 79.367188 L 105.59375 76.335938 L 105.535156 76.128906 C 105.496094 76 105.375 75.910156 105.238281 75.910156 L 104.753906 75.910156 C 104.617188 75.910156 104.496094 76 104.457031 76.128906 L 104.398438 76.335938 L 103.445312 79.367188 L 102.695312 76.554688 C 102.59375 76.175781 102.25 75.910156 101.855469 75.910156 L 101.363281 75.910156 L 102.527344 80.332031 C 102.617188 80.683594 102.9375 80.929688 103.300781 80.929688 L 103.910156 80.929688 C 104.046875 80.929688 104.164062 80.839844 104.207031 80.710938 L 104.996094 78.164062 L 105.785156 80.710938 C 105.828125 80.839844 105.945312 80.929688 106.082031 80.929688 L 106.691406 80.929688 C 107.054688 80.929688 107.375 80.683594 107.464844 80.332031 Z M 108.628906 75.910156 "/>
    <path d="M 109.953125 75.910156 L 109.386719 75.910156 L 109.386719 80.929688 L 110.515625 80.929688 L 110.515625 76.472656 C 110.515625 76.160156 110.261719 75.910156 109.953125 75.910156 "/>
    <path d="M 116.472656 78.382812 C 116.472656 77.015625 115.347656 75.910156 113.964844 75.910156 C 113.449219 75.910156 112.964844 76.066406 112.566406 76.332031 C 112.5 76.089844 112.285156 75.910156 112.019531 75.910156 L 111.457031 75.910156 L 111.457031 80.363281 C 111.457031 80.367188 111.457031 80.367188 111.457031 80.367188 L 111.457031 80.929688 L 112.019531 80.929688 C 112.332031 80.929688 112.585938 80.675781 112.585938 80.363281 L 112.585938 78.324219 C 112.617188 77.609375 113.222656 77.039062 113.960938 77.039062 L 113.96875 77.039062 C 114.730469 77.039062 115.347656 77.640625 115.347656 78.382812 L 115.347656 80.367188 C 115.347656 80.675781 115.601562 80.929688 115.910156 80.929688 L 116.472656 80.929688 Z M 116.472656 78.382812 "/>
    <path d="M 100.042969 74.363281 C 100.355469 74.363281 100.605469 74.613281 100.605469 74.925781 C 100.605469 75.242188 100.355469 75.492188 100.042969 75.492188 C 99.726562 75.492188 99.476562 75.242188 99.476562 74.925781 C 99.476562 74.613281 99.726562 74.363281 100.042969 74.363281 "/>
    <path d="M 92.089844 74.363281 C 92.402344 74.363281 92.65625 74.613281 92.65625 74.925781 C 92.65625 75.242188 92.402344 75.492188 92.089844 75.492188 C 91.777344 75.492188 91.523438 75.242188 91.523438 74.925781 C 91.523438 74.613281 91.777344 74.363281 92.089844 74.363281 "/>
    <path d="M 109.953125 74.363281 C 110.265625 74.363281 110.519531 74.613281 110.519531 74.925781 C 110.519531 75.242188 110.265625 75.492188 109.953125 75.492188 C 109.640625 75.492188 109.386719 75.242188 109.386719 74.925781 C 109.386719 74.613281 109.640625 74.363281 109.953125 74.363281 "/>
    <!-- Co., -->
    <path d="M 122.328125 74.335938 L 124.917969 74.335938 C 124.917969 74.707031 124.773438 75.023438 124.480469 75.277344 C 124.261719 75.464844 123.976562 75.5625 123.6875 75.5625 L 122.445312 75.5625 C 121.015625 75.5625 119.902344 76.828125 120.367188 78.324219 C 120.648438 79.222656 121.507812 79.695312 122.449219 79.695312 L 123.683594 79.695312 C 124.367188 79.695312 124.917969 80.25 124.917969 80.929688 L 122.460938 80.929688 C 122.460938 80.929688 122.460938 80.925781 122.460938 80.925781 L 122.398438 80.925781 C 120.605469 80.925781 119.085938 79.519531 119.03125 77.730469 C 118.976562 75.867188 120.476562 74.335938 122.328125 74.335938 "/>
    <path d="M 127.363281 79.800781 C 126.597656 79.800781 125.976562 79.183594 125.976562 78.417969 C 125.976562 77.65625 126.597656 77.035156 127.363281 77.035156 C 128.125 77.035156 128.746094 77.65625 128.746094 78.417969 C 128.746094 79.183594 128.125 79.800781 127.363281 79.800781 M 127.363281 75.910156 C 125.972656 75.910156 124.851562 77.03125 124.851562 78.417969 C 124.851562 79.804688 125.972656 80.929688 127.363281 80.929688 C 128.75 80.929688 129.871094 79.804688 129.871094 78.417969 C 129.871094 77.03125 128.75 75.910156 127.363281 75.910156 "/>
    <path d="M 132.140625 80.199219 C 132.140625 80.601562 131.8125 80.929688 131.410156 80.929688 C 131.007812 80.929688 130.679688 80.601562 130.679688 80.199219 C 130.679688 79.796875 131.007812 79.46875 131.410156 79.46875 C 131.8125 79.46875 132.140625 79.796875 132.140625 80.199219 "/>
    <path d="M 132.777344 81.871094 L 132.285156 81.871094 L 133.121094 79.46875 L 134.148438 79.46875 L 133.484375 81.371094 C 133.382812 81.671875 133.097656 81.871094 132.777344 81.871094 "/>
    <!-- Ltd. -->
    <path d="M 140.355469 79.691406 L 138.003906 79.691406 L 138.003906 74.898438 C 138.003906 74.585938 137.753906 74.335938 137.441406 74.335938 L 136.875 74.335938 L 136.875 80.929688 L 141.070312 80.929688 L 141.070312 80.40625 C 141.070312 80.011719 140.75 79.691406 140.355469 79.691406 "/>
    <path d="M 143.816406 77.144531 C 144.128906 77.144531 144.382812 76.890625 144.382812 76.578125 L 144.382812 76.015625 L 142.6875 76.015625 L 142.6875 75.214844 C 142.6875 74.902344 142.4375 74.648438 142.125 74.648438 L 141.554688 74.648438 L 141.554688 79.113281 C 141.554688 80.3125 142.210938 80.929688 143.132812 80.929688 C 143.523438 80.929688 144.082031 80.828125 144.363281 80.738281 L 144.363281 79.597656 C 144.25 79.691406 142.6875 80.246094 142.6875 79.03125 L 142.6875 77.144531 Z M 143.816406 77.144531 "/>
    <path d="M 147.136719 79.785156 C 146.46875 79.785156 145.925781 79.242188 145.925781 78.574219 C 145.925781 77.902344 146.46875 77.359375 147.136719 77.359375 L 147.921875 77.359375 L 147.921875 79.785156 Z M 148.5 74.335938 L 147.921875 74.335938 L 147.921875 76.21875 L 147.132812 76.21875 C 145.832031 76.222656 144.78125 77.277344 144.78125 78.574219 C 144.78125 79.875 145.835938 80.929688 147.136719 80.929688 L 149.066406 80.929688 L 149.066406 74.898438 C 149.066406 74.585938 148.8125 74.335938 148.5 74.335938 "/>
    <path d="M 151.378906 80.199219 C 151.378906 80.601562 151.050781 80.929688 150.648438 80.929688 C 150.246094 80.929688 149.917969 80.601562 149.917969 80.199219 C 149.917969 79.796875 150.246094 79.46875 150.648438 79.46875 C 151.050781 79.46875 151.378906 79.796875 151.378906 80.199219 "/>
  </g>
</svg>
