<?xml version="1.0" encoding="UTF-8"?>
<!-- DigiWin Full English Logo (White): D mark + Digiwin wordmark -->
<svg xmlns="http://www.w3.org/2000/svg" viewBox="0 0 23.0 7.2">
  <g fill="#ffffff" transform="translate(-84.257812, -83.761719)">
    <!-- D mark -->
    <path d="M 84.757812 88.734375 C 84.757812 88.289062 85.117188 87.929688 85.5625 87.929688 L 86.949219 87.929688 C 87.738281 87.929688 88.378906 87.289062 88.378906 86.5 C 88.378906 85.707031 87.738281 85.066406 86.949219 85.066406 L 85.5625 85.066406 C 85.117188 85.066406 84.757812 84.707031 84.757812 84.261719 L 86.949219 84.261719 C 88.183594 84.261719 89.183594 85.265625 89.183594 86.5 C 89.183594 87.734375 88.183594 88.734375 86.949219 88.734375 Z M 84.757812 88.734375 "/>
    <path d="M 84.996094 86.5 C 84.996094 86.179688 85.253906 85.921875 85.570312 85.921875 C 85.890625 85.921875 86.148438 86.179688 86.148438 86.5 C 86.148438 86.816406 85.890625 87.074219 85.570312 87.074219 C 85.253906 87.074219 84.996094 86.816406 84.996094 86.5 "/>
    <!-- Digiwin wordmark letters -->
    <path d="M 101.414062 85.332031 L 101.078125 85.332031 C 100.8125 85.332031 100.578125 85.511719 100.511719 85.769531 L 100.003906 87.675781 L 99.355469 85.621094 L 99.316406 85.480469 C 99.289062 85.394531 99.207031 85.332031 99.113281 85.332031 L 98.785156 85.332031 C 98.695312 85.332031 98.613281 85.394531 98.585938 85.480469 L 98.542969 85.621094 L 97.898438 87.675781 L 97.390625 85.769531 C 97.320312 85.511719 97.085938 85.332031 96.820312 85.332031 L 96.488281 85.332031 L 97.277344 88.328125 C 97.335938 88.566406 97.554688 88.734375 97.800781 88.734375 L 98.214844 88.734375 C 98.308594 88.734375 98.386719 88.675781 98.414062 88.589844 L 98.949219 86.859375 L 99.488281 88.589844 C 99.515625 88.675781 99.59375 88.734375 99.6875 88.734375 L 100.101562 88.734375 C 100.347656 88.734375 100.5625 88.566406 100.625 88.328125 Z M 101.414062 85.332031 "/>
    <path d="M 95.296875 85.332031 L 95.207031 85.332031 L 95.207031 88.734375 L 95.972656 88.734375 L 95.972656 86.007812 C 95.972656 85.632812 95.671875 85.332031 95.296875 85.332031 "/>
    <path d="M 102.015625 85.332031 L 101.925781 85.332031 L 101.925781 88.734375 L 102.695312 88.734375 L 102.695312 86.007812 C 102.695312 85.632812 102.390625 85.332031 102.015625 85.332031 "/>
    <path d="M 93.71875 87.246094 L 93.71875 87.96875 L 92.898438 87.96875 C 92.394531 87.96875 91.988281 87.550781 91.988281 87.035156 L 91.988281 87.03125 C 91.988281 86.515625 92.394531 86.097656 92.898438 86.097656 L 93.800781 86.097656 C 93.855469 86.09375 93.910156 86.089844 93.964844 86.078125 C 94.308594 86.003906 94.566406 85.699219 94.570312 85.332031 L 92.898438 85.332031 C 91.972656 85.332031 91.222656 86.09375 91.222656 87.035156 C 91.222656 87.972656 91.972656 88.734375 92.898438 88.734375 L 93.71875 88.734375 L 93.71875 88.738281 C 93.71875 89.402344 93.234375 89.6875 92.648438 89.6875 C 91.804688 89.6875 91.289062 89.335938 91.289062 89.335938 L 91.289062 90.136719 C 91.5625 90.273438 92.027344 90.4375 92.65625 90.4375 C 92.660156 90.4375 92.660156 90.4375 92.660156 90.4375 C 93.804688 90.4375 94.457031 89.765625 94.484375 88.796875 L 94.484375 86.476562 C 94.0625 86.480469 93.71875 86.824219 93.71875 87.246094 "/>
    <path d="M 89.90625 85.332031 L 89.816406 85.332031 L 89.816406 88.734375 L 90.582031 88.734375 L 90.582031 86.007812 C 90.582031 85.632812 90.28125 85.332031 89.90625 85.332031 "/>
    <path d="M 106.734375 87.007812 C 106.734375 86.082031 105.972656 85.332031 105.03125 85.332031 C 104.679688 85.332031 104.355469 85.4375 104.082031 85.617188 C 104.039062 85.453125 103.890625 85.332031 103.710938 85.332031 L 103.328125 85.332031 L 103.328125 88.351562 C 103.328125 88.351562 103.328125 88.351562 103.328125 88.355469 L 103.328125 88.734375 L 103.710938 88.734375 C 103.925781 88.734375 104.097656 88.5625 104.097656 88.351562 L 104.097656 86.96875 C 104.117188 86.484375 104.527344 86.097656 105.027344 86.097656 L 105.035156 86.097656 C 105.550781 86.097656 105.96875 86.503906 105.96875 87.007812 L 105.96875 88.351562 C 105.96875 88.5625 106.140625 88.734375 106.351562 88.734375 L 106.734375 88.734375 Z M 106.734375 87.007812 "/>
    <path d="M 95.589844 84.28125 C 95.804688 84.28125 95.976562 84.453125 95.976562 84.664062 C 95.976562 84.878906 95.804688 85.050781 95.589844 85.050781 C 95.378906 85.050781 95.207031 84.878906 95.207031 84.664062 C 95.207031 84.453125 95.378906 84.28125 95.589844 84.28125 "/>
    <path d="M 90.199219 84.28125 C 90.414062 84.28125 90.585938 84.453125 90.585938 84.664062 C 90.585938 84.878906 90.414062 85.050781 90.199219 85.050781 C 89.988281 85.050781 89.816406 84.878906 89.816406 84.664062 C 89.816406 84.453125 89.988281 84.28125 90.199219 84.28125 "/>
    <path d="M 102.3125 84.28125 C 102.523438 84.28125 102.695312 84.453125 102.695312 84.664062 C 102.695312 84.878906 102.523438 85.050781 102.3125 85.050781 C 102.097656 85.050781 101.925781 84.878906 101.925781 84.664062 C 101.925781 84.453125 102.097656 84.28125 102.3125 84.28125 "/>
  </g>
</svg>
