<?xml version="1.0" encoding="UTF-8"?>
<!-- DigiWin Full Chinese Company Name: 鼎捷数智股份有限公司 -->
<svg xmlns="http://www.w3.org/2000/svg" viewBox="0 0 90.1 9.5">
  <g fill="#00AFF0" transform="translate(-73, -24.4102)">
    <!-- 鼎捷数智股份有限公司 (full company name) -->
    <path d="M 76.625 29.625 L 74.695312 29.625 C 74.609375 29.625 74.539062 29.554688 74.539062 29.46875 L 74.539062 25.800781 C 74.539062 25.554688 74.339844 25.359375 74.097656 25.359375 L 73.6875 25.359375 L 73.6875 29.796875 C 73.6875 30.144531 73.96875 30.425781 74.316406 30.425781 L 76.175781 30.425781 L 76.175781 30.9375 L 73.5 30.9375 L 73.5 31.328125 C 73.5 31.523438 73.65625 31.679688 73.851562 31.679688 L 74.203125 31.679688 C 74.203125 32.691406 73.636719 33.378906 73.636719 33.378906 L 74.609375 33.378906 C 74.609375 33.378906 75.085938 32.679688 75.085938 31.679688 L 76.175781 31.679688 L 76.175781 33.378906 L 77.03125 33.378906 L 77.03125 30.027344 C 77.03125 29.804688 76.847656 29.625 76.625 29.625 M 76.023438 27.996094 L 79.046875 27.996094 L 79.046875 28.445312 L 76.023438 28.445312 Z M 76.023438 26.917969 L 79.046875 26.917969 L 79.046875 27.363281 L 76.023438 27.363281 Z M 76.023438 25.789062 L 79.046875 25.789062 L 79.046875 26.234375 L 76.023438 26.234375 Z M 75.503906 29.195312 L 79.566406 29.195312 C 79.75 29.195312 79.902344 29.042969 79.902344 28.859375 L 79.902344 25.09375 L 75.167969 25.09375 L 75.167969 28.859375 C 75.167969 29.042969 75.320312 29.195312 75.503906 29.195312 M 81.085938 30.9375 L 78.894531 30.9375 L 78.894531 30.425781 L 80.753906 30.425781 C 81.101562 30.425781 81.382812 30.144531 81.382812 29.792969 L 81.382812 25.359375 L 80.972656 25.359375 C 80.726562 25.359375 80.53125 25.554688 80.53125 25.800781 L 80.53125 29.46875 C 80.53125 29.554688 80.460938 29.625 80.375 29.625 L 78.445312 29.625 C 78.222656 29.625 78.042969 29.804688 78.042969 30.027344 L 78.042969 33.378906 L 78.894531 33.378906 L 78.894531 31.679688 L 80.5 31.679688 C 80.59375 31.679688 80.667969 31.757812 80.667969 31.851562 L 80.667969 33.386719 L 81.523438 33.386719 L 81.523438 31.375 C 81.523438 31.132812 81.324219 30.9375 81.085938 30.9375 "/>
    <path d="M 103.78125 28.226562 L 104.417969 29.03125 C 104.480469 29.109375 104.578125 29.203125 104.78125 29.203125 L 105.632812 29.203125 L 104.460938 27.796875 L 105.125 27.796875 C 105.328125 27.796875 105.492188 27.632812 105.492188 27.429688 L 105.492188 27.085938 L 104.019531 27.085938 L 104.019531 26.222656 L 104.972656 26.222656 C 105.175781 26.222656 105.339844 26.0625 105.339844 25.859375 L 105.339844 25.492188 L 102.871094 25.492188 C 102.933594 25.269531 102.949219 25.082031 102.949219 24.972656 L 102.15625 24.972656 C 102.160156 25.273438 101.9375 25.972656 101.25 26.289062 L 101.25 27.125 C 101.867188 26.914062 102.265625 26.578125 102.519531 26.222656 L 103.214844 26.222656 L 103.214844 27.085938 L 101.402344 27.085938 L 101.402344 27.796875 L 103.097656 27.796875 C 102.921875 28.214844 102.398438 28.675781 101.359375 28.851562 L 101.359375 29.648438 C 101.96875 29.574219 103.207031 29.296875 103.78125 28.226562 "/>
    <path d="M 107.691406 31.058594 L 102.925781 31.058594 L 102.925781 30.371094 L 107.691406 30.371094 Z M 107.691406 32.367188 C 107.691406 32.480469 107.597656 32.574219 107.480469 32.574219 L 103.136719 32.574219 C 103.019531 32.574219 102.925781 32.480469 102.925781 32.367188 L 102.925781 31.839844 L 107.691406 31.839844 Z M 102.128906 29.574219 L 102.128906 32.910156 C 102.128906 33.152344 102.324219 33.347656 102.570312 33.347656 L 108.046875 33.347656 C 108.289062 33.347656 108.488281 33.152344 108.488281 32.910156 L 108.488281 29.574219 Z M 102.128906 29.574219 "/>
    <path d="M 108.195312 28.214844 C 108.195312 28.320312 108.109375 28.410156 108 28.410156 L 106.796875 28.410156 C 106.652344 28.410156 106.535156 28.292969 106.535156 28.148438 L 106.535156 26.195312 L 108.195312 26.195312 Z M 105.773438 25.390625 L 105.773438 28.652344 C 105.773438 28.949219 106.015625 29.191406 106.3125 29.191406 L 108.429688 29.191406 C 108.71875 29.191406 108.957031 28.957031 108.957031 28.664062 L 108.957031 25.390625 Z M 105.773438 25.390625 "/>
    <path d="M 94.980469 31.808594 L 93.757812 31.34375 C 94.15625 30.882812 94.492188 30.328125 94.492188 30.328125 L 95.851562 30.328125 C 95.851562 30.328125 95.722656 31.28125 94.980469 31.808594 M 96.664062 29.617188 L 94.796875 29.617188 C 94.882812 29.425781 94.96875 29.222656 94.96875 29.222656 L 94.324219 29.222656 C 94.175781 29.222656 94.074219 29.308594 94 29.441406 C 93.933594 29.554688 93.898438 29.617188 93.898438 29.617188 L 92.433594 29.617188 L 92.433594 29.886719 C 92.433594 30.128906 92.628906 30.328125 92.875 30.328125 L 93.566406 30.328125 C 93.246094 30.847656 92.714844 31.457031 92.714844 31.457031 C 92.632812 31.53125 92.65625 31.664062 92.753906 31.707031 L 94.121094 32.257812 C 93.671875 32.449219 93.128906 32.570312 92.464844 32.570312 L 92.464844 33.328125 C 93.617188 33.328125 94.46875 33.046875 95.09375 32.671875 L 96.789062 33.390625 L 96.789062 32.722656 C 96.789062 32.625 96.730469 32.535156 96.636719 32.496094 L 95.78125 32.144531 C 96.828125 31.097656 96.8125 29.789062 96.8125 29.789062 C 96.828125 29.699219 96.757812 29.617188 96.664062 29.617188 M 96.101562 27.285156 L 96.582031 27.285156 C 96.714844 27.285156 96.828125 27.171875 96.828125 27.035156 L 96.828125 26.53125 L 96.144531 26.53125 L 96.558594 25.316406 L 95.933594 25.316406 C 95.828125 25.316406 95.734375 25.382812 95.699219 25.484375 L 95.34375 26.53125 L 95.070312 26.53125 L 95.070312 25.164062 C 95.070312 25.023438 94.957031 24.910156 94.816406 24.910156 L 94.308594 24.910156 L 94.308594 26.53125 L 93.996094 26.53125 L 93.609375 25.476562 C 93.574219 25.378906 93.480469 25.316406 93.378906 25.316406 L 92.742188 25.316406 L 93.183594 26.53125 L 92.464844 26.53125 L 92.464844 27.285156 L 93.351562 27.285156 C 93.320312 27.59375 93.203125 28.1875 92.453125 28.367188 L 92.453125 29.125 C 93.714844 28.867188 94.027344 27.914062 94.082031 27.285156 L 94.308594 27.285156 L 94.308594 29.101562 L 94.816406 29.101562 C 94.957031 29.101562 95.070312 28.988281 95.070312 28.847656 L 95.070312 27.285156 L 95.289062 27.285156 L 95.777344 28.785156 C 95.84375 28.957031 96.007812 29.070312 96.191406 29.070312 L 96.707031 29.070312 Z M 96.101562 27.285156 "/>
    <path d="M 89.816406 28.066406 L 88.472656 28.066406 L 88.472656 27.488281 L 89.816406 27.488281 Z M 89.816406 29.386719 L 88.472656 29.386719 L 88.472656 28.808594 L 89.816406 28.808594 Z M 90.667969 28.066406 L 90.667969 26.742188 L 88.472656 26.742188 L 88.472656 26.203125 L 90.414062 26.203125 C 90.640625 26.203125 90.824219 26.019531 90.824219 25.789062 L 90.824219 25.457031 L 88.472656 25.457031 L 88.472656 25.308594 C 88.472656 25.113281 88.316406 24.957031 88.121094 24.957031 L 87.621094 24.957031 L 87.621094 25.457031 L 85.664062 25.457031 L 85.664062 26.203125 L 87.621094 26.203125 L 87.621094 26.742188 L 85.722656 26.742188 L 85.722656 27.488281 L 87.621094 27.488281 L 87.621094 28.066406 L 85.722656 28.066406 L 85.722656 28.808594 L 87.621094 28.808594 L 87.621094 29.386719 L 85.722656 29.386719 L 85.722656 30.132812 L 87.621094 30.132812 L 87.621094 32.570312 C 86.855469 32.570312 86.582031 31.738281 86.582031 31.738281 C 86.582031 31.738281 86.753906 31.277344 86.753906 30.457031 L 85.945312 30.460938 C 85.976562 32.183594 85.050781 32.484375 85.050781 32.484375 L 85.050781 33.40625 C 85.050781 33.40625 85.84375 33.105469 86.199219 32.46875 C 86.199219 32.46875 86.492188 33.335938 87.78125 33.335938 L 90.664062 33.335938 C 90.878906 33.335938 91.050781 33.160156 91.050781 32.949219 L 91.050781 32.589844 L 88.472656 32.589844 L 88.472656 31.671875 L 90.316406 31.671875 C 90.527344 31.671875 90.699219 31.496094 90.699219 31.285156 L 90.699219 30.925781 L 88.472656 30.925781 L 88.472656 30.132812 L 90.058594 30.132812 C 90.394531 30.132812 90.667969 29.859375 90.667969 29.519531 L 90.667969 28.808594 L 90.90625 28.808594 C 91.148438 28.808594 91.34375 28.613281 91.34375 28.371094 L 91.34375 28.066406 Z M 85.398438 28.773438 C 85.398438 28.773438 84.863281 29.042969 84.53125 29.148438 L 84.53125 27.136719 L 85.003906 27.136719 C 85.230469 27.136719 85.414062 26.953125 85.414062 26.726562 L 85.414062 26.285156 L 84.53125 26.285156 L 84.53125 25.351562 C 84.53125 25.132812 84.355469 24.957031 84.140625 24.957031 L 83.679688 24.957031 L 83.679688 26.285156 L 82.816406 26.285156 L 82.816406 27.136719 L 83.679688 27.136719 L 83.679688 29.410156 C 83.304688 29.523438 82.796875 29.574219 82.796875 29.574219 L 82.796875 30.550781 C 82.796875 30.550781 83.222656 30.507812 83.679688 30.375 L 83.679688 32.230469 C 83.679688 32.398438 83.542969 32.535156 83.378906 32.535156 L 82.917969 32.535156 L 82.917969 33.386719 L 83.636719 33.386719 C 84.132812 33.386719 84.53125 32.984375 84.53125 32.488281 L 84.53125 30.125 C 85 29.980469 85.398438 29.742188 85.398438 29.742188 Z M 85.398438 28.773438 "/>
    <path d="M 98 26.640625 L 97.859375 26.640625 L 99.230469 26.640625 C 99.230469 27.855469 99.1875 29.363281 98.65625 30.609375 C 98.015625 29.425781 97.949219 28.046875 98 26.640625 M 99.140625 31.328125 C 100.011719 29.738281 99.96875 27.847656 99.988281 26.640625 L 100.046875 26.640625 C 100.253906 26.640625 100.417969 26.476562 100.417969 26.277344 L 100.417969 25.855469 L 98.054688 25.855469 C 98.167969 25.351562 98.21875 25.023438 98.21875 25.023438 L 97.507812 25.023438 C 97.234375 26.820312 96.496094 28.359375 96.222656 28.878906 C 96.160156 29.003906 96.210938 29.007812 96.210938 29.007812 L 96.289062 29.070312 L 96.933594 29.070312 C 97.066406 28.816406 97.1875 28.554688 97.296875 28.292969 C 97.367188 29.324219 97.589844 30.398438 98.230469 31.382812 C 97.921875 31.832031 97.511719 32.214844 96.976562 32.5 L 96.976562 33.378906 C 97.722656 33.007812 98.28125 32.53125 98.699219 31.996094 C 99.148438 32.5 99.730469 32.972656 100.5 33.390625 L 100.5 32.464844 C 99.929688 32.128906 99.488281 31.746094 99.140625 31.328125 "/>
    <path d="M 111.191406 29.523438 C 111.203125 29.179688 111.203125 28.847656 111.203125 28.542969 L 111.203125 28.175781 L 112.320312 28.175781 L 112.320312 29.523438 Z M 112.320312 27.34375 L 111.203125 27.34375 L 111.203125 26.039062 L 112.320312 26.039062 Z M 112.796875 25.207031 L 110.382812 25.207031 L 110.382812 28.550781 C 110.382812 29.90625 110.328125 32.003906 109.644531 33.386719 L 110.566406 33.386719 C 110.933594 32.535156 111.089844 31.433594 111.15625 30.371094 L 112.320312 30.371094 L 112.320312 32.234375 C 112.320312 32.402344 112.183594 32.535156 112.015625 32.535156 L 111.679688 32.535156 L 111.679688 33.386719 L 112.25 33.386719 C 112.746094 33.386719 113.148438 32.984375 113.148438 32.488281 L 113.148438 25.207031 Z M 112.796875 25.207031 "/>
    <path d="M 117.683594 27.660156 C 117.515625 27.660156 117.378906 27.523438 117.378906 27.355469 L 117.378906 25.21875 L 114.363281 25.21875 L 114.363281 26.226562 C 114.339844 26.695312 114.363281 27.339844 113.46875 27.769531 L 113.46875 28.777344 C 115.183594 28.027344 115.183594 26.828125 115.183594 26.253906 L 115.183594 26.066406 L 116.550781 26.066406 L 116.550781 27.535156 C 116.550781 28.03125 116.949219 28.433594 117.445312 28.433594 L 118.289062 28.433594 L 118.289062 27.660156 Z M 117.683594 27.660156 "/>
    <path d="M 114.839844 29.769531 L 116.917969 29.769531 C 116.671875 30.453125 116.320312 31.011719 115.878906 31.445312 C 115.433594 31.011719 115.085938 30.453125 114.839844 29.769531 M 118.289062 32.535156 C 117.640625 32.460938 117.066406 32.277344 116.566406 31.976562 C 117.234375 31.261719 117.667969 30.296875 117.980469 29.105469 C 118.007812 29.007812 117.933594 28.917969 117.835938 28.917969 L 113.621094 28.917969 L 113.621094 29.417969 C 113.621094 29.613281 113.777344 29.769531 113.96875 29.769531 C 114.261719 30.664062 114.648438 31.402344 115.1875 31.980469 C 114.6875 32.277344 114.113281 32.460938 113.46875 32.535156 L 113.46875 33.386719 C 114.464844 33.269531 115.25 32.992188 115.878906 32.566406 C 116.507812 32.992188 117.292969 33.269531 118.289062 33.386719 Z M 118.289062 32.535156 "/>
    <path d="M 121.9375 24.972656 L 120.980469 24.972656 C 120.980469 24.972656 120.722656 26.886719 119.167969 28.128906 L 119.167969 29.472656 C 119.488281 29.246094 119.773438 28.996094 120.03125 28.734375 L 120.03125 33.382812 L 120.941406 33.382812 L 120.941406 27.582031 C 121.472656 26.722656 121.777344 25.808594 121.9375 24.972656 "/>
    <path d="M 127.746094 28.160156 C 126.085938 27.214844 125.796875 24.972656 125.796875 24.972656 L 124.84375 24.972656 C 125.070312 26.023438 125.445312 27.304688 126.324219 28.238281 L 122.726562 28.238281 C 123.5625 27.242188 123.984375 26.125 124.195312 25.066406 L 123.242188 25.066406 C 123.15625 25.464844 122.75 27.050781 121.507812 28.195312 L 121.507812 29.359375 C 121.847656 29.113281 122.148438 28.851562 122.414062 28.578125 L 122.414062 29.210938 L 123.160156 29.210938 C 123.132812 30.308594 123.039062 31.710938 121.5625 32.421875 L 121.5625 33.382812 C 123.554688 32.777344 124.070312 31.179688 124.105469 29.210938 L 125.652344 29.210938 L 125.652344 32.1875 C 125.652344 32.355469 125.515625 32.492188 125.347656 32.492188 L 124.84375 32.492188 L 124.84375 33.34375 L 125.652344 33.34375 C 126.148438 33.34375 126.550781 32.941406 126.550781 32.445312 L 126.550781 28.457031 C 126.878906 28.757812 127.273438 29.011719 127.746094 29.195312 Z M 127.746094 28.160156 "/>
    <path d="M 135.078125 29.101562 L 131.027344 29.101562 L 131.027344 28.238281 L 135.078125 28.238281 Z M 131.027344 29.875 L 135.078125 29.875 L 135.078125 30.734375 L 131.027344 30.734375 Z M 132.144531 25.84375 C 132.242188 25.558594 132.332031 25.269531 132.414062 24.972656 L 131.410156 24.972656 C 131.320312 25.273438 131.222656 25.566406 131.117188 25.84375 L 128.523438 25.84375 L 128.523438 26.703125 L 130.742188 26.703125 C 130.269531 27.640625 129.59375 28.46875 128.46875 29.246094 L 128.46875 30.371094 C 129.117188 30.023438 129.660156 29.621094 130.121094 29.179688 L 130.121094 33.386719 L 131.027344 33.386719 L 131.027344 31.511719 L 135.078125 31.511719 L 135.078125 32.234375 C 135.078125 32.402344 134.941406 32.535156 134.773438 32.535156 L 134.335938 32.535156 L 134.335938 33.386719 L 135.074219 33.386719 C 135.574219 33.386719 135.976562 32.984375 135.976562 32.488281 L 135.976562 27.429688 L 131.457031 27.429688 C 131.585938 27.195312 131.703125 26.953125 131.8125 26.703125 L 136.390625 26.703125 C 136.617188 26.703125 136.804688 26.519531 136.804688 26.292969 L 136.804688 25.84375 Z M 132.144531 25.84375 "/>
    <path d="M 148.683594 25.066406 L 149.78125 25.066406 C 148.921875 28.4375 146.296875 29.703125 146.296875 29.703125 L 146.296875 28.535156 C 146.296875 28.535156 148.234375 27.128906 148.683594 25.066406 "/>
    <path d="M 160.652344 27.015625 L 160.652344 27.457031 C 160.652344 27.65625 160.488281 27.820312 160.289062 27.820312 L 155.101562 27.820312 L 155.101562 27.015625 Z M 160.652344 27.015625 "/>
    <path d="M 159.410156 31.109375 L 156.433594 31.109375 L 156.433594 29.417969 L 159.410156 29.417969 Z M 155.542969 28.621094 L 155.542969 31.464844 C 155.542969 31.707031 155.738281 31.90625 155.980469 31.90625 L 159.867188 31.90625 C 160.113281 31.90625 160.308594 31.707031 160.308594 31.464844 L 160.308594 28.621094 Z M 155.542969 28.621094 "/>
    <path d="M 161.976562 25.203125 L 155.105469 25.203125 L 155.105469 26.082031 L 161.640625 26.082031 L 161.640625 32.242188 C 161.640625 32.410156 161.503906 32.546875 161.335938 32.546875 L 159.746094 32.546875 L 159.746094 33.398438 L 161.675781 33.398438 C 162.171875 33.398438 162.574219 32.992188 162.574219 32.496094 L 162.574219 25.203125 Z M 161.976562 25.203125 "/>
    <path d="M 154.527344 29.59375 L 154.527344 28.445312 C 154.527344 28.445312 152.511719 27.09375 152.023438 24.972656 L 150.886719 24.972656 C 150.886719 24.972656 151.632812 28.183594 154.527344 29.59375 "/>
    <path d="M 153.679688 32.4375 L 152.394531 30.1875 L 151.304688 30.1875 L 152.640625 32.542969 L 148.199219 32.542969 L 150.453125 28.4375 L 149.371094 28.4375 L 147.164062 32.433594 C 146.945312 32.832031 147.195312 33.3125 147.621094 33.382812 L 147.621094 33.394531 L 153.132812 33.394531 C 153.617188 33.386719 153.921875 32.863281 153.679688 32.4375 "/>
    <path d="M 141.789062 27.78125 L 144.375 27.78125 L 144.375 28.808594 L 141.789062 28.808594 Z M 144.375 27.03125 L 141.789062 27.03125 L 141.789062 26 L 144.375 26 Z M 144.144531 31.421875 C 144.425781 31.246094 144.984375 30.882812 145.441406 30.496094 L 145.441406 29.566406 C 144.777344 30.144531 144.0625 30.5625 143.769531 30.722656 C 143.628906 30.386719 143.523438 30.011719 143.441406 29.601562 L 144.734375 29.601562 C 145.027344 29.601562 145.261719 29.367188 145.261719 29.078125 L 145.261719 25.207031 L 140.890625 25.207031 C 140.890625 25.207031 140.890625 30.363281 140.890625 32.488281 C 140.890625 32.984375 141.292969 33.386719 141.789062 33.386719 L 143.074219 33.386719 L 143.074219 32.535156 L 142.089844 32.535156 C 141.925781 32.535156 141.789062 32.402344 141.789062 32.234375 L 141.789062 29.601562 L 142.585938 29.601562 C 142.90625 31.324219 143.582031 32.800781 145.558594 33.390625 L 145.558594 32.535156 C 144.917969 32.257812 144.46875 31.886719 144.144531 31.421875 "/>
    <path d="M 140.414062 25.207031 L 137.65625 25.207031 L 137.65625 33.40625 L 138.507812 33.40625 L 138.507812 26.027344 L 139.589844 26.027344 C 139.394531 26.679688 139.140625 27.476562 138.945312 28.027344 C 139.535156 28.71875 139.671875 29.335938 139.671875 29.808594 C 139.671875 30.082031 139.621094 30.3125 139.5 30.40625 C 139.429688 30.453125 139.339844 30.476562 139.246094 30.480469 L 138.882812 30.480469 L 138.882812 31.269531 L 139.386719 31.269531 L 139.386719 31.265625 C 139.457031 31.265625 139.523438 31.257812 139.585938 31.25 C 139.78125 31.222656 139.957031 31.164062 140.089844 31.0625 C 140.371094 30.855469 140.484375 30.457031 140.484375 29.902344 C 140.484375 29.34375 140.347656 28.683594 139.738281 27.929688 L 140.554688 25.402344 C 140.589844 25.304688 140.515625 25.207031 140.414062 25.207031 "/>
  </g>
</svg>
