<?xml version="1.0" encoding="UTF-8"?>
<!-- DigiWin Full Chinese Logo (White): D mark + 鼎捷数智 -->
<svg xmlns="http://www.w3.org/2000/svg" viewBox="0 0 91.8 17.9">
  <g fill="#ffffff" transform="translate(-72.148438, -45.0625)">
    <!-- D mark -->
    <path d="M 72.648438 62.453125 C 72.648438 60.773438 74.011719 59.414062 75.6875 59.414062 L 80.925781 59.414062 C 83.910156 59.414062 86.332031 56.992188 86.332031 54.007812 C 86.332031 51.019531 83.910156 48.601562 80.925781 48.601562 L 75.6875 48.601562 C 74.011719 48.601562 72.648438 47.238281 72.648438 45.5625 L 80.925781 45.5625 C 85.589844 45.5625 89.371094 49.34375 89.371094 54.007812 C 89.371094 58.671875 85.589844 62.453125 80.925781 62.453125 Z M 72.648438 62.453125 "/>
    <path d="M 73.542969 54.007812 C 73.542969 52.804688 74.519531 51.828125 75.722656 51.828125 C 76.921875 51.828125 77.898438 52.804688 77.898438 54.007812 C 77.898438 55.207031 76.921875 56.183594 75.722656 56.183594 C 74.519531 56.183594 73.542969 55.207031 73.542969 54.007812 "/>
    <!-- Chinese characters 鼎捷数智 -->
    <path d="M 99.148438 54.933594 L 95.308594 54.933594 C 95.136719 54.933594 95 54.792969 95 54.625 L 95 47.328125 C 95 46.84375 94.605469 46.449219 94.121094 46.449219 L 93.304688 46.449219 L 93.304688 55.269531 C 93.304688 55.964844 93.863281 56.527344 94.558594 56.527344 L 98.253906 56.527344 L 98.253906 57.542969 L 92.929688 57.542969 L 92.929688 58.320312 C 92.929688 58.707031 93.242188 59.019531 93.628906 59.019531 L 94.328125 59.019531 C 94.328125 61.027344 93.203125 62.394531 93.203125 62.394531 L 95.140625 62.394531 C 95.140625 62.394531 96.085938 61.003906 96.085938 59.019531 L 98.253906 59.019531 L 98.253906 62.394531 L 99.949219 62.394531 L 99.949219 55.734375 C 99.949219 55.292969 99.589844 54.933594 99.148438 54.933594 M 97.949219 51.699219 L 103.964844 51.699219 L 103.964844 52.585938 L 97.949219 52.585938 Z M 97.949219 49.546875 L 103.964844 49.546875 L 103.964844 50.4375 L 97.949219 50.4375 Z M 97.949219 47.304688 L 103.964844 47.304688 L 103.964844 48.191406 L 97.949219 48.191406 Z M 96.921875 54.078125 L 104.992188 54.078125 C 105.359375 54.078125 105.660156 53.78125 105.660156 53.410156 L 105.660156 45.925781 L 96.253906 45.925781 L 96.253906 53.410156 C 96.253906 53.78125 96.550781 54.078125 96.921875 54.078125 M 108.011719 57.542969 L 103.65625 57.542969 L 103.65625 56.527344 L 107.351562 56.527344 C 108.046875 56.527344 108.609375 55.964844 108.609375 55.269531 L 108.609375 46.449219 L 107.789062 46.449219 C 107.304688 46.449219 106.914062 46.84375 106.914062 47.328125 L 106.914062 54.625 C 106.914062 54.792969 106.773438 54.933594 106.601562 54.933594 L 102.761719 54.933594 C 102.320312 54.933594 101.960938 55.292969 101.960938 55.734375 L 101.960938 62.394531 L 103.65625 62.394531 L 103.65625 59.019531 L 106.851562 59.019531 C 107.035156 59.019531 107.1875 59.171875 107.1875 59.355469 L 107.1875 62.414062 L 108.882812 62.414062 L 108.882812 58.410156 C 108.882812 57.929688 108.492188 57.542969 108.011719 57.542969 "/>
    <path d="M 153.136719 52.152344 L 154.40625 53.753906 C 154.527344 53.90625 154.71875 54.089844 155.125 54.089844 L 156.8125 54.089844 L 154.484375 51.296875 L 155.808594 51.296875 C 156.210938 51.296875 156.535156 50.972656 156.535156 50.570312 L 156.535156 49.882812 L 153.605469 49.882812 L 153.605469 48.171875 L 155.507812 48.171875 C 155.90625 48.171875 156.230469 47.847656 156.230469 47.449219 L 156.230469 46.714844 L 151.324219 46.714844 C 151.449219 46.273438 151.480469 45.902344 151.480469 45.683594 L 149.902344 45.683594 C 149.914062 46.28125 149.472656 47.671875 148.101562 48.300781 L 148.101562 49.960938 C 149.332031 49.546875 150.121094 48.871094 150.625 48.171875 L 152.007812 48.171875 L 152.007812 49.882812 L 148.40625 49.882812 L 148.40625 51.296875 L 151.773438 51.296875 C 151.425781 52.125 150.386719 53.042969 148.316406 53.394531 L 148.316406 54.976562 C 149.535156 54.828125 151.996094 54.28125 153.136719 52.152344 "/>
    <path d="M 160.90625 57.78125 L 151.4375 57.78125 L 151.4375 56.414062 L 160.90625 56.414062 Z M 160.90625 60.382812 C 160.90625 60.609375 160.722656 60.796875 160.492188 60.796875 L 151.851562 60.796875 C 151.621094 60.796875 151.4375 60.609375 151.4375 60.382812 L 151.4375 59.335938 L 160.90625 59.335938 Z M 149.851562 54.828125 L 149.851562 61.460938 C 149.851562 61.945312 150.242188 62.335938 150.726562 62.335938 L 161.617188 62.335938 C 162.101562 62.335938 162.492188 61.945312 162.492188 61.460938 L 162.492188 54.828125 Z M 149.851562 54.828125 "/>
    <path d="M 161.914062 52.128906 C 161.914062 52.34375 161.738281 52.515625 161.527344 52.515625 L 159.128906 52.515625 C 158.839844 52.515625 158.605469 52.28125 158.605469 51.992188 L 158.605469 48.109375 L 161.914062 48.109375 Z M 157.097656 46.507812 L 157.097656 53 C 157.097656 53.589844 157.578125 54.070312 158.167969 54.070312 L 162.378906 54.070312 C 162.953125 54.070312 163.421875 53.601562 163.421875 53.023438 L 163.421875 46.507812 Z M 157.097656 46.507812 "/>
    <path d="M 135.636719 59.273438 L 133.210938 58.351562 C 133.996094 57.433594 134.671875 56.332031 134.671875 56.332031 L 137.375 56.332031 C 137.375 56.332031 137.113281 58.226562 135.636719 59.273438 M 138.984375 54.914062 L 135.269531 54.914062 C 135.445312 54.539062 135.617188 54.132812 135.617188 54.132812 L 134.335938 54.132812 C 134.035156 54.132812 133.839844 54.300781 133.6875 54.566406 C 133.554688 54.796875 133.484375 54.914062 133.484375 54.914062 L 130.570312 54.914062 L 130.570312 55.453125 C 130.570312 55.9375 130.964844 56.332031 131.449219 56.332031 L 132.828125 56.332031 C 132.1875 57.367188 131.132812 58.578125 131.132812 58.578125 C 130.972656 58.726562 131.015625 58.988281 131.214844 59.074219 L 133.925781 60.164062 C 133.039062 60.546875 131.960938 60.789062 130.640625 60.789062 L 130.640625 62.296875 C 132.929688 62.296875 134.621094 61.734375 135.859375 60.988281 L 139.238281 62.417969 L 139.238281 61.09375 C 139.238281 60.894531 139.117188 60.71875 138.933594 60.640625 L 137.226562 59.9375 C 139.308594 57.863281 139.28125 55.257812 139.28125 55.257812 C 139.308594 55.078125 139.167969 54.914062 138.984375 54.914062 M 137.867188 50.277344 L 138.816406 50.277344 C 139.089844 50.277344 139.308594 50.058594 139.308594 49.785156 L 139.308594 48.78125 L 137.957031 48.78125 L 138.777344 46.363281 L 137.53125 46.363281 C 137.320312 46.363281 137.136719 46.5 137.066406 46.695312 L 136.355469 48.78125 L 135.8125 48.78125 L 135.8125 46.066406 C 135.8125 45.785156 135.589844 45.5625 135.308594 45.5625 L 134.304688 45.5625 L 134.304688 48.78125 L 133.679688 48.78125 L 132.914062 46.6875 C 132.84375 46.492188 132.660156 46.363281 132.453125 46.363281 L 131.183594 46.363281 L 132.066406 48.78125 L 130.640625 48.78125 L 130.640625 50.277344 L 132.398438 50.277344 C 132.335938 50.890625 132.105469 52.070312 130.609375 52.433594 L 130.609375 53.941406 C 133.125 53.425781 133.742188 51.535156 133.855469 50.277344 L 134.304688 50.277344 L 134.304688 53.894531 L 135.308594 53.894531 C 135.589844 53.894531 135.8125 53.667969 135.8125 53.390625 L 135.8125 50.277344 L 136.246094 50.277344 L 137.222656 53.261719 C 137.351562 53.605469 137.683594 53.832031 138.050781 53.832031 L 139.074219 53.832031 Z M 137.867188 50.277344 "/>
    <path d="M 125.371094 51.828125 L 122.703125 51.828125 L 122.703125 50.683594 L 125.371094 50.683594 Z M 125.371094 54.460938 L 122.703125 54.460938 L 122.703125 53.308594 L 125.371094 53.308594 Z M 127.066406 51.828125 L 127.066406 49.203125 L 122.699219 49.203125 L 122.699219 48.128906 L 126.558594 48.128906 C 127.011719 48.128906 127.378906 47.761719 127.378906 47.308594 L 127.378906 46.648438 L 122.699219 46.648438 L 122.699219 46.347656 C 122.699219 45.964844 122.390625 45.652344 122.003906 45.652344 L 121.003906 45.652344 L 121.003906 46.648438 L 117.113281 46.648438 L 117.113281 48.128906 L 121.003906 48.128906 L 121.003906 49.203125 L 117.230469 49.203125 L 117.230469 50.683594 L 121.003906 50.683594 L 121.003906 51.828125 L 117.230469 51.828125 L 117.230469 53.308594 L 121.003906 53.308594 L 121.003906 54.460938 L 117.230469 54.460938 L 117.230469 55.9375 L 121.003906 55.9375 L 121.003906 60.792969 C 119.484375 60.792969 118.945312 59.136719 118.945312 59.136719 C 118.945312 59.136719 119.28125 58.21875 119.28125 56.589844 L 117.675781 56.589844 C 117.738281 60.015625 115.898438 60.621094 115.898438 60.621094 L 115.898438 62.453125 C 115.898438 62.453125 117.472656 61.855469 118.179688 60.585938 C 118.179688 60.585938 118.761719 62.304688 121.328125 62.304688 L 127.058594 62.304688 C 127.480469 62.304688 127.820312 61.964844 127.820312 61.542969 L 127.820312 60.828125 L 122.699219 60.828125 L 122.699219 58.996094 L 126.367188 58.996094 C 126.785156 58.996094 127.128906 58.65625 127.128906 58.234375 L 127.128906 57.519531 L 122.699219 57.519531 L 122.699219 55.9375 L 125.855469 55.9375 C 126.523438 55.9375 127.066406 55.394531 127.066406 54.726562 L 127.066406 53.308594 L 127.535156 53.308594 C 128.015625 53.308594 128.40625 52.917969 128.40625 52.4375 L 128.40625 51.828125 Z M 116.585938 53.238281 C 116.585938 53.238281 115.527344 53.777344 114.867188 53.980469 L 114.867188 49.988281 L 115.800781 49.988281 C 116.253906 49.988281 116.621094 49.621094 116.621094 49.167969 L 116.621094 48.292969 L 114.867188 48.292969 L 114.867188 46.4375 C 114.867188 46.003906 114.515625 45.652344 114.085938 45.652344 L 113.171875 45.652344 L 113.171875 48.292969 L 111.453125 48.292969 L 111.453125 49.988281 L 113.171875 49.988281 L 113.171875 54.507812 C 112.421875 54.734375 111.417969 54.835938 111.417969 54.835938 L 111.417969 56.769531 C 111.417969 56.769531 112.265625 56.683594 113.171875 56.425781 L 113.171875 60.113281 C 113.171875 60.449219 112.902344 60.71875 112.570312 60.71875 L 111.65625 60.71875 L 111.65625 62.414062 L 113.082031 62.414062 C 114.070312 62.414062 114.867188 61.613281 114.867188 60.628906 L 114.867188 55.925781 C 115.796875 55.640625 116.585938 55.167969 116.585938 55.167969 Z M 116.585938 53.238281 "/>
    <path d="M 145.710938 48.996094 L 140.90625 48.996094 L 140.921875 47.441406 L 146.449219 47.441406 L 146.449219 48.277344 C 146.449219 48.675781 146.125 48.996094 145.710938 48.996094 "/>
    <path d="M 144.085938 48.980469 C 144.085938 52.917969 143.871094 58.386719 139.609375 60.644531 L 139.609375 62.394531 C 145.78125 59.328125 145.53125 52.578125 145.59375 48.960938 "/>
    <path d="M 140.175781 48.980469 C 140.148438 53.332031 140.0625 58.847656 146.613281 62.417969 L 146.613281 60.582031 C 141.902344 57.78125 141.476562 53.453125 141.644531 49 "/>
    <path d="M 139.519531 53.832031 L 138.238281 53.832031 L 138.085938 53.703125 C 138.085938 53.703125 137.980469 53.699219 138.109375 53.453125 C 138.648438 52.414062 140.117188 49.355469 140.664062 45.785156 L 142.074219 45.785156 C 142.074219 45.785156 141.402344 50.242188 139.519531 53.832031 "/>
  </g>
</svg>
